<svg id="art" xmlns="http://www.w3.org/2000/svg" xmlns:xlink="http://www.w3.org/1999/xlink" viewBox="0 0 1485.39 696.01"><defs><style>.cls-1{fill:none;}.cls-2{fill:#231f20;}.cls-3{fill:url(#_6_pack);}.cls-4{fill:#fff;}</style><pattern id="_6_pack" data-name="6 pack" width="115.2" height="144" patternTransform="translate(418.75 -88.54)" patternUnits="userSpaceOnUse" viewBox="0 0 115.2 144"><rect class="cls-1" width="115.2" height="144"/><path class="cls-2" d="M92.81,118.22a19.26,19.26,0,0,0,19.26,19.26v13a19.27,19.27,0,0,0,0,38.53v12.51A31.72,31.72,0,0,1,86.4,188.51a31.72,31.72,0,0,1-25.67,13.05V189.05a19.27,19.27,0,0,0,0-38.53v-13a19.27,19.27,0,0,0,0-38.53V86.44a31.72,31.72,0,0,1,25.67,13,31.72,31.72,0,0,1,25.67-13V99A19.26,19.26,0,0,0,92.81,118.22ZM86.4,137A31.87,31.87,0,0,1,79.3,144a31.87,31.87,0,0,1,7.1,7.05A31.87,31.87,0,0,1,93.5,144,31.87,31.87,0,0,1,86.4,137Z"/><path class="cls-2" d="M35.21,118.22a19.26,19.26,0,0,0,19.26,19.26v13a19.27,19.27,0,0,0,0,38.53v12.51A31.72,31.72,0,0,1,28.8,188.51,31.72,31.72,0,0,1,3.13,201.56V189.05a19.27,19.27,0,0,0,0-38.53v-13A19.27,19.27,0,0,0,3.13,99V86.44a31.72,31.72,0,0,1,25.67,13,31.72,31.72,0,0,1,25.67-13V99A19.26,19.26,0,0,0,35.21,118.22ZM28.8,137A31.87,31.87,0,0,1,21.7,144a31.87,31.87,0,0,1,7.1,7.05A31.87,31.87,0,0,1,35.9,144,31.87,31.87,0,0,1,28.8,137Z"/><path class="cls-2" d="M121.61,46.22a19.26,19.26,0,0,0,19.26,19.26v13a19.27,19.27,0,0,0,0,38.53v12.51a31.72,31.72,0,0,1-25.67-13,31.72,31.72,0,0,1-25.67,13V117.05a19.27,19.27,0,0,0,0-38.53v-13a19.27,19.27,0,0,0,0-38.53V14.44A31.72,31.72,0,0,1,115.2,27.49a31.72,31.72,0,0,1,25.67-13V27A19.26,19.26,0,0,0,121.61,46.22ZM115.2,65a31.87,31.87,0,0,1-7.1,7,31.87,31.87,0,0,1,7.1,7,31.87,31.87,0,0,1,7.1-7A31.87,31.87,0,0,1,115.2,65Z"/><path class="cls-2" d="M92.81-25.78A19.26,19.26,0,0,0,112.07-6.52v13a19.27,19.27,0,0,0,0,38.53V57.56A31.72,31.72,0,0,1,86.4,44.51,31.72,31.72,0,0,1,60.73,57.56V45.05a19.27,19.27,0,0,0,0-38.53v-13A19.26,19.26,0,0,0,80-25.78,19.26,19.26,0,0,0,60.73-45V-57.56A31.72,31.72,0,0,1,86.4-44.51a31.72,31.72,0,0,1,25.67-13.05V-45A19.26,19.26,0,0,0,92.81-25.78ZM86.4-7A31.87,31.87,0,0,1,79.3,0a31.87,31.87,0,0,1,7.1,7.05,31.87,31.87,0,0,1,7.1-7A31.87,31.87,0,0,1,86.4-7Z"/><path class="cls-2" d="M64,46.22A19.26,19.26,0,0,0,83.27,65.48v13a19.27,19.27,0,0,0,0,38.53v12.51a31.72,31.72,0,0,1-25.67-13,31.72,31.72,0,0,1-25.67,13V117.05a19.27,19.27,0,0,0,0-38.53v-13a19.27,19.27,0,0,0,0-38.53V14.44A31.72,31.72,0,0,1,57.6,27.49a31.72,31.72,0,0,1,25.67-13V27A19.26,19.26,0,0,0,64,46.22ZM57.6,65a31.87,31.87,0,0,1-7.1,7,31.87,31.87,0,0,1,7.1,7,31.87,31.87,0,0,1,7.1-7A31.87,31.87,0,0,1,57.6,65Z"/><path class="cls-2" d="M35.21-25.78A19.26,19.26,0,0,0,54.47-6.52v13a19.27,19.27,0,0,0,0,38.53V57.56A31.72,31.72,0,0,1,28.8,44.51,31.72,31.72,0,0,1,3.13,57.56V45.05a19.27,19.27,0,0,0,0-38.53v-13A19.26,19.26,0,0,0,22.39-25.78,19.26,19.26,0,0,0,3.13-45V-57.56A31.72,31.72,0,0,1,28.8-44.51,31.72,31.72,0,0,1,54.47-57.56V-45A19.26,19.26,0,0,0,35.21-25.78ZM28.8-7A31.87,31.87,0,0,1,21.7,0a31.87,31.87,0,0,1,7.1,7.05,31.87,31.87,0,0,1,7.1-7A31.87,31.87,0,0,1,28.8-7Z"/><path class="cls-2" d="M6.41,46.22A19.26,19.26,0,0,0,25.67,65.48v13a19.27,19.27,0,0,0,0,38.53v12.51A31.72,31.72,0,0,1,0,116.51a31.72,31.72,0,0,1-25.67,13V117.05A19.26,19.26,0,0,0-6.41,97.78,19.26,19.26,0,0,0-25.67,78.52v-13A19.26,19.26,0,0,0-6.41,46.22,19.26,19.26,0,0,0-25.67,27V14.44A31.72,31.72,0,0,1,0,27.49a31.72,31.72,0,0,1,25.67-13V27A19.26,19.26,0,0,0,6.41,46.22ZM0,65a31.87,31.87,0,0,1-7.1,7,31.87,31.87,0,0,1,7.1,7,31.87,31.87,0,0,1,7.1-7A31.87,31.87,0,0,1,0,65Z"/></pattern></defs><title>hw4</title><rect id="pattern" class="cls-3" x="568.26" width="790.9" height="612"/><g id="square"><rect class="cls-2" x="1216.02" y="426.64" width="269.37" height="269.37"/><path class="cls-4" d="M960.92,735.57a12.71,12.71,0,1,1,25.41,0h8.26a21,21,0,1,0-41.93,0Z" transform="translate(378.75 -89.54)"/><path class="cls-4" d="M960.92,587.14a12.71,12.71,0,1,1,25.41,0h8.26a21,21,0,0,0-41.93,0Z" transform="translate(378.75 -89.54)"/><path class="cls-4" d="M904.15,643.19a12.71,12.71,0,1,1-25.42,0h-8.25a21,21,0,1,0,41.92,0Z" transform="translate(378.75 -89.54)"/><path class="cls-4" d="M1065.18,643.19a12.71,12.71,0,0,1-25.42,0h-8.26a21,21,0,0,0,41.93,0Z" transform="translate(378.75 -89.54)"/></g><g id="there"><rect class="cls-2" x="119.05" y="-185.99" width="96.19" height="1091.78" transform="translate(185.99 437.5) rotate(-90)"/><path class="cls-4" d="M527.61,379c-2,0-4.64-1.06-4.64-7.28V352.27h8.23a2.27,2.27,0,0,0,.53-3.22H523V338.3l-1.05-.21-5.75,5.37v5.59h-3.53l-2.17,2.32.37.9h5.33v22.15c0,6.22,2.9,9.18,8.12,9.18a7.43,7.43,0,0,0,3.32-1.06L533,379.8l-.68-2.11A11,11,0,0,1,527.61,379Z" transform="translate(378.75 -89.54)"/><path class="cls-4" d="M569.69,374.63V361.5c0-9.44-4.53-13.34-11-13.34-4.17,0-8.28,2.74-11.24,5.59V327.86a87.55,87.55,0,0,1-12,2.68v1.85c5,.47,5.22.74,5.22,5.59v36.65c0,5.06-.68,5.54-5.38,6v2.06h17.09v-2.06c-4.48-.47-5-1.11-5-6V356.49a11,11,0,0,1,7.91-3.74c4.85,0,7.49,3,7.49,9.38v12.5c0,5-.63,5.54-5.06,6v2.06h16.93v-2.06C570.27,380.17,569.69,379.8,569.69,374.63Z" transform="translate(378.75 -89.54)"/><path class="cls-4" d="M607.93,360a12.2,12.2,0,0,0-12-11.86h0c-4.17,0-8.44,2.21-11.81,5.9a19.28,19.28,0,0,0-5,13.19c0,8.59,5.69,16.35,15.34,16.35,2.54,0,8.18-1.38,13.24-7.76l-1.32-1.68a13.06,13.06,0,0,1-9.07,3.85c-5.43,0-11.28-4.22-11.44-14.19,9.07-.32,18.88-1.11,20.3-1.32S607.93,361.5,607.93,360Zm-9.07.32c-4.38.16-8.55.16-12.71.16,1.1-6.44,4.48-9.44,7.85-9.44h.06c4.11,0,6.64,3.74,6.64,7.8C600.7,359.86,600.23,360.29,598.86,360.34Z" transform="translate(378.75 -89.54)"/><path class="cls-4" d="M634.19,348.16c-3.64,0-6.86,4.11-9.44,8.33h-.16v-8.6a51.14,51.14,0,0,1-11.6,3.17v1.74c4.38.63,4.8.95,4.8,5.85v16c0,5.06-.69,5.54-5.43,6v2.06h18.72v-2.06c-6.12-.47-6.49-.95-6.49-6V360.87c1.69-4.12,4.06-6.38,6.07-6.38a4.68,4.68,0,0,1,3.42,1.58,1.93,1.93,0,0,0,2.11.21,4.59,4.59,0,0,0,2.74-4.17C638.93,350.21,637,348.16,634.19,348.16Z" transform="translate(378.75 -89.54)"/><path class="cls-4" d="M670.36,360a12.19,12.19,0,0,0-12-11.86h-.05c-4.17,0-8.44,2.21-11.81,5.9a19.28,19.28,0,0,0-5,13.19c0,8.59,5.69,16.35,15.34,16.35,2.53,0,8.18-1.38,13.24-7.76l-1.32-1.68a13.06,13.06,0,0,1-9.07,3.85c-5.43,0-11.29-4.22-11.44-14.19,9.07-.32,18.87-1.11,20.3-1.32S670.36,361.5,670.36,360Zm-9.07.32c-4.37.16-8.54.16-12.71.16,1.11-6.44,4.49-9.44,7.86-9.44h0c4.12,0,6.65,3.74,6.65,7.8C663.14,359.86,662.66,360.29,661.29,360.34Z" transform="translate(378.75 -89.54)"/><path class="cls-4" d="M680.75,374.26a4.51,4.51,0,0,0-4.64,4.59,4.41,4.41,0,0,0,4.54,4.75h.1a4.4,4.4,0,0,0,4.59-4.75A4.47,4.47,0,0,0,680.75,374.26Z" transform="translate(378.75 -89.54)"/></g><g id="hello"><rect class="cls-2" x="41.73" y="-234.58" width="96.19" height="937.15" transform="translate(234.58 234.28) rotate(-90)"/><path class="cls-4" d="M402.67,212.32c-6.54.53-7.18.9-7.18,7.44v30.69c0,6.54.69,7,7.18,7.49v2.21H380.78v-2.21c6.8-.53,7.44-.95,7.44-7.49V235.37H361.16v15.08c0,6.49.64,7,7.18,7.49v2.21H346.87v-2.21c6.33-.53,6.91-.95,6.91-7.49V219.76c0-6.54-.58-6.91-7.12-7.44V210h21.25v2.32c-6.11.53-6.75.9-6.75,7.44v12.13h27.06V219.76c0-6.49-.64-6.91-6.91-7.44V210h21.36Z" transform="translate(378.75 -89.54)"/><path class="cls-4" d="M435,253.3c-5.06,6.38-10.7,7.75-13.23,7.75-9.65,0-15.35-7.75-15.35-16.35a19.32,19.32,0,0,1,5-13.18c3.38-3.69,7.65-5.91,11.81-5.91h.06a12.2,12.2,0,0,1,12,11.87c0,1.47-.42,2.16-1.85,2.48s-11.23,1-20.3,1.31c.16,10,6,14.19,11.45,14.19a13,13,0,0,0,9.07-3.85Zm-13.6-24.79c-3.38,0-6.75,3-7.86,9.44,4.17,0,8.33,0,12.71-.16,1.37,0,1.85-.47,1.85-1.47,0-4.06-2.54-7.81-6.65-7.81Z" transform="translate(378.75 -89.54)"/><path class="cls-4" d="M438.05,260.15v-2c4.9-.58,5.59-1,5.59-6.17V215.75c0-5.22-.53-5.38-5.38-5.85V208a72.54,72.54,0,0,0,12.13-2.69v46.62c0,5.22.69,5.69,5.8,6.17v2Z" transform="translate(378.75 -89.54)"/><path class="cls-4" d="M458.88,260.15v-2c4.9-.58,5.59-1,5.59-6.17V215.75c0-5.22-.53-5.38-5.38-5.85V208a72.54,72.54,0,0,0,12.13-2.69v46.62c0,5.22.69,5.69,5.8,6.17v2Z" transform="translate(378.75 -89.54)"/><path class="cls-4" d="M498.59,225.61A17.05,17.05,0,0,1,516,242.7c0,12.44-9.49,18.35-17.45,18.35-11.24,0-17.78-8.44-17.78-16.93a18.08,18.08,0,0,1,17.78-18.51Zm-1,2.59c-4.54,0-8.76,4.58-8.76,13.28,0,9.76,4.22,16.88,10.55,16.88,4.54,0,8.6-3.06,8.6-13.87,0-9.23-3.7-16.29-10.29-16.29Z" transform="translate(378.75 -89.54)"/><path class="cls-4" d="M524.17,249.76c2.9,0,7.43,3.17,7.43,8.6,0,6.22-5.69,9.65-10.81,11.07l-.84-2.37c3.95-1.58,6.22-3.69,6.22-6.59s-2.16-4.64-5.12-5.33c-.37,0-.95-.68-.95-2,0-2,2-3.33,4-3.33Z" transform="translate(378.75 -89.54)"/></g></svg>