<svg id="Layer_1" data-name="Layer 1" xmlns="http://www.w3.org/2000/svg" viewBox="0 0 843.75 839.25"><path d="M42.08,378.06a32.26,32.26,0,0,0,.34,8.36,11.54,11.54,0,0,0,10.44,9.05,12,12,0,0,0,9-3.46c2.68-3,3.14-6.55,3.4-10.37l.77-11.45a5,5,0,0,1,5.28-4.83l7,.47a4.51,4.51,0,0,1,4.19,4.79l-2,30.53c5.85.17,10.42-4,13.44-8.79,3.54-5.63,6.68-12.18,10.23-18,2.3-3.91,4.63-8.48,8-11.64,6.23-5.45,14.75-4.65,22.39-4.36L172,360.17c4.26.29,7.36,4.56,7,9.72L174.91,435a9.12,9.12,0,0,1-9.83,8.58l-78.34-5.26c-17.29-1.16-16.55-18.92-16.55-18.92-.61,9.2-13.76,16.89-21.62,16.36l-18.63-1.25A12.82,12.82,0,0,1,18,420.86l4.81-71.61a4.43,4.43,0,0,1,4.56-4l29.18,2a4.57,4.57,0,0,1,4.17,5L60,362.35A16.71,16.71,0,0,1,42.08,378.06Z"/><path d="M77.74,303.24c-1.29,3.36-4,2.81-5.45,2.25l-18.48-7.1c-9.24-3.56-14.28-11.76-10.73-21l8.07-21a9.14,9.14,0,0,1,11.92-5.31L192.87,301a9.13,9.13,0,0,1,5.3,11.92L186.79,342.5a9.12,9.12,0,0,1-11.92,5.3L98,318.26c-9-3.47-13.58-14.86-11.87-24.32C83.19,292.81,79.19,299.46,77.74,303.24Z"/><path d="M247.41,219.07l-45.62-35.9a1.84,1.84,0,0,0-2.71.17L198,184.75c-12.66,16.09-18.54,11.19-18.54,11.19,9.88-12.56,6.62-25.15-15.31-42.4l-6.9-5.43A30.34,30.34,0,0,0,114.71,153L84.1,191.93a9.41,9.41,0,0,0,1.54,12.95l109.11,85.85a9.18,9.18,0,0,0,11.94-.63c3.2-4.06,8.91-11.31,11.41-14.5l2.37-3c4.17-5.31,1.87-11.12-3.61-15.44l-40.14-31.58c-.71-.56-1.27-1.29-2.22-1.18-.81-.06-1.68.69-2.94,2.28a8.08,8.08,0,0,1-11.41,1l-1.41-1.11c4.87-6.19,9.8-13.19,13.42-13.78,4.07-.81,7.93,3.38,12.7,7.13l37.67,29.64a13.07,13.07,0,0,0,18.33-2.19l8.62-11A12.35,12.35,0,0,0,247.41,219.07Zm-104-11.14a4.7,4.7,0,0,1-6.7,1.6l-15-11.83a4.65,4.65,0,0,1-.26-6.21l8.9-11.32a5,5,0,0,1,6.95-.83l3,2.37C149.26,188.8,149,198.61,143.37,207.93Z"/><path d="M241.76,76.56a32.76,32.76,0,0,0-6.74,5,11.55,11.55,0,0,0-1.64,13.72,12,12,0,0,0,7.91,5.55c4,.55,7.2-1.07,10.5-3l10.3-6a4.72,4.72,0,0,1,6.35,1.51l3.63,6.22a4.75,4.75,0,0,1-1.71,6.46l-11.86,6.91c-14,8.16-2.44,28,11.56,19.83l3.3-1.92a16.58,16.58,0,0,1,5.81-22.66l9.33-5.43a4.52,4.52,0,0,1,6.16,1.62l32.73,56.18a20.83,20.83,0,0,1-7.66,28.42l-50.35,29.34a9.6,9.6,0,0,1-13.23-3.49L221.26,154.9a26,26,0,0,1,4.62-31.85A25.74,25.74,0,0,1,196,111.55l-9.28-15.94a9.84,9.84,0,0,1,3.57-13.54l59.49-34.66a10.08,10.08,0,0,1,13.84,3.65L275.4,71.28a4.75,4.75,0,0,1-1.7,6.46L265,82.84A16.92,16.92,0,0,1,241.76,76.56Z"/><path d="M436.21,136.22,426,35.48A28.13,28.13,0,0,0,395.2,10.33l-23.51,2.38a28.13,28.13,0,0,0-25.15,30.81l10.2,100.74a28.13,28.13,0,0,0,30.81,25.15L411.06,167A28.13,28.13,0,0,0,436.21,136.22Zm-44.06-35.34c-8.73.88-16.44-6-17.35-15-.13-1.35-.41-4-.68-6.72l-.7-6.94c-.88-8.73,5.29-17,14-18.15a16.33,16.33,0,0,1,18,14.46l0,.45c.14,1.34.41,4,.7,6.94l.71,6.94,0,.45A16,16,0,0,1,392.15,100.88Z"/><path d="M577.88,48.64l-36.5,129.74a11.25,11.25,0,0,1-14.17,7.92l-22.51-6.38c-6.5-1.83-9.64-8.1-7.8-14.6,13.3-47,22.31-66.41,6.51-70.88l-.43-.12a3.46,3.46,0,0,0-4.17,2.33l-1.65,5.84c-.68,2.38.93,3.31,2.88,5.49,2.64,3.09.64,7.67-1.14,14l-11.34,40A12.57,12.57,0,0,1,472,170.67l-20.79-5.89a11.23,11.23,0,0,1-7.91-14.16l36.87-129.4a11.25,11.25,0,0,1,14.17-7.92l6.92,2a13.89,13.89,0,0,1,9.3,8.48l23.75,58.17a1.71,1.71,0,0,0,3.33-.22c3.93-13.86,6.38-20.88.9-25.47a6.2,6.2,0,0,1-1.87-6.61L540.54,36a9.24,9.24,0,0,1,11.18-6.43l18.18,5.15C576.18,36.47,579.66,42.37,577.88,48.64Z"/><path d="M714.15,135.32l-21.65,25.6a3.36,3.36,0,0,1-4.93.25l-9.3-8.16a2.42,2.42,0,0,1-.56-2.83c6.55-9.49-.25-12.59-3.69-15.49C639.16,175.92,661.51,179.8,651.2,192l-41.26,48.79a5,5,0,0,1-7,.59L564.3,208.69a4.81,4.81,0,0,1-.41-6.83l41.26-48.8c10.32-12.2,17.68,9.06,52.55-32.17-3.44-2.91-7.63-9.11-15.9-1.07a2,2,0,0,1-2.7.07l-9.6-7.82a3.25,3.25,0,0,1-.57-4.9l21.65-25.6a4.62,4.62,0,0,1,6.66-.56l56.18,47.51A4.8,4.8,0,0,1,714.15,135.32Z"/><path d="M672.5,333.28c-3.81,2.89-9.31,1.32-11.72-3l-14.33-25.76c-2.19-3.93-1.1-8.91,2.64-11l54.27-30.19c2.55-1.43,5.63-.05,7.52,1.48a4.78,4.78,0,0,0,1.85,1,2.69,2.69,0,0,0,2.3-.5c.48-.52,3-1.64,5.11-2.84a3.56,3.56,0,0,0,1.4-4.9l-9-16.12a3.45,3.45,0,0,0-4.59-1.31l-5.31,3a3.71,3.71,0,0,0-1.75,1.49,4.84,4.84,0,0,0-.11,2.12c.31,2.4-.15,5.75-2.7,7.17l-54.27,30.19c-3.74,2.08-8.44.57-10.74-3.56L618.88,255c-2.51-4.52-.83-9.83,3.62-11.54l122.3-68c3.81-2.89,9.2-1.51,11.72,3L770.74,204c2.3,4.13,1.1,8.92-2.64,11l-17.5,9.73c-1.57.88-3.23-.26-4.17-1a6.14,6.14,0,0,0-5.18-1,18.8,18.8,0,0,0-5,1.73l-2.16,1.2a3.45,3.45,0,0,0-1.31,4.59l9,16.12a3.45,3.45,0,0,0,4.59,1.31l2.16-1.2a36.31,36.31,0,0,0,4.2-3.11,7.13,7.13,0,0,0,1.78-5.11c-.15-1.2-.24-3.22,1.33-4.09l17.5-9.74c3.74-2.07,8.55-.37,10.74,3.56l14.33,25.76c2.4,4.32.83,9.83-3.62,11.54Z"/><path d="M807.13,383.2A32.51,32.51,0,0,0,805.3,375a11.53,11.53,0,0,0-11.89-7,11.89,11.89,0,0,0-8.26,5c-2.11,3.4-1.93,7-1.5,10.81L785,395.67a4.72,4.72,0,0,1-3.94,5.2l-7.16.8a4.74,4.74,0,0,1-5.22-4.16l-1.54-13.64c-1.82-16.1-24.63-13.52-22.81,2.58l.43,3.8a16.56,16.56,0,0,1,18.39,14.45l1.21,10.73a4.51,4.51,0,0,1-4,5l-64.61,7.3a20.83,20.83,0,0,1-22.92-18.47l-6.55-57.9a9.61,9.61,0,0,1,8.53-10.7l68.86-7.78A26,26,0,0,1,771,349.92a25.73,25.73,0,0,1,22.57-22.7l18.33-2.07a9.85,9.85,0,0,1,11,8.73l7.73,68.41a10.09,10.09,0,0,1-8.92,11.2l-23.25,2.62a4.75,4.75,0,0,1-5.23-4.16L792,401.89A16.91,16.91,0,0,1,807.13,383.2Z"/><path d="M201.24,546.44l5.48,12.09a9.07,9.07,0,0,1-4.39,12.12l-121.63,69a9.08,9.08,0,0,1-12.12-4.39l-15-33a6.83,6.83,0,0,1-.72-2.14,9.18,9.18,0,0,1,5.31-10.07L93.66,574a13.07,13.07,0,0,1,4.08-1.36c3.74-.46,9.77,2.48,12.6,4.91a11.53,11.53,0,0,0,11.83,1.55l25.61-14.33c1.23-.56.34-3.61-1-3.76l-32,3.62a4.4,4.4,0,0,1-4.73-2.8l-2.88-6.35c-1.11-2.46-1.26-3.87.83-5.81l24-21.24c.75-1.08-1.43-4.79-2.66-4.23L101,535.6c-3.9,1.76-6.06,5.71-6.32,10-.25,3.81-1.33,8.51-4.24,10.81a12.92,12.92,0,0,1-3.62,2.38L51.34,574.9a9.2,9.2,0,0,1-11.08-2.64,7.84,7.84,0,0,1-1.14-2l-15-33a9.13,9.13,0,0,1,4.59-12.21l132.14-45.85a9,9,0,0,1,11.91,4.48l5.86,12.91a27.73,27.73,0,0,1-9,34A27.94,27.94,0,0,1,201.24,546.44Z"/><path d="M247.14,601.79l-16.4-17a28.14,28.14,0,0,0-39.77-.71l-72.86,70.31a28.13,28.13,0,0,0-.71,39.76l16.4,17a28.14,28.14,0,0,0,39.77.71l72.86-70.31A28.13,28.13,0,0,0,247.14,601.79Zm-39.45,44-.32.31-5,4.85-5,4.84-.33.31a16,16,0,0,1-22.9-.72c-6.09-6.32-5.43-16.65,1.05-22.9L180,627.8l5-4.84c6.32-6.09,16.67-6.39,22.92-.23A16.32,16.32,0,0,1,207.69,645.8Z"/><path d="M261.28,629.6a8.75,8.75,0,0,1,12.18-3.69l16.66,8.93A8.74,8.74,0,0,1,293.8,647l-13.7,25.59a4.92,4.92,0,0,1-5.82,2.75c-5.2-1.25-8,2.59-10.34,5.95-8.08,11.75-19.21,31.57-2.15,40.71s27.5-11.3,32.7-24.34c1.51-3.78,3.15-8.27-.77-11.9a4.91,4.91,0,0,1-.93-6.37l13.71-25.58a8.75,8.75,0,0,1,12.18-3.69l16.66,8.93A8.75,8.75,0,0,1,339,671.26L280.25,780.93c-6.59,12.3-20.29,16.44-32.59,9.85l-35.3-18.92c-12.3-6.59-16.44-20.29-9.85-32.59Z"/><path d="M447.21,686.55l-12,134.23a11.24,11.24,0,0,1-12.47,10.39l-23.3-2.11c-6.72-.62-11-6.2-10.35-12.92,4.42-48.62,9.69-69.38-6.66-70.87l-.45,0a3.47,3.47,0,0,0-3.67,3.06l-.55,6.05c-.22,2.46,1.53,3.07,3.85,4.87,3.16,2.54,2,7.41,1.45,13.91l-3.77,41.45A12.58,12.58,0,0,1,365.63,826l-21.51-2a11.23,11.23,0,0,1-10.39-12.46l12.41-134A11.23,11.23,0,0,1,358.6,667.2l7.17.65a13.89,13.89,0,0,1,10.7,6.62l34.06,52.8c1,1.67,3.07,1,3.23-.84,1.31-14.34,2.43-21.69-3.8-25.2a6.15,6.15,0,0,1-3.06-6.15L408.18,681a9.24,9.24,0,0,1,9.8-8.38l18.82,1.71C443.3,674.9,447.8,680.05,447.21,686.55Z"/><path d="M532.54,657.1l8.69,32.38a3.37,3.37,0,0,1-2.6,4.2l-12,3a2.43,2.43,0,0,1-2.64-1.16c-4.06-10.79-10.49-7-14.83-5.8,14,52.15,29.93,36,34.07,51.43l16.56,61.71a5,5,0,0,1-3.49,6.07L507.38,822a4.81,4.81,0,0,1-5.85-3.55L485,756.77c-4.14-15.43,17.52-9.37,3.52-61.52-4.34,1.17-11.82,1.08-9.93,12.45a2,2,0,0,1-1.49,2.26l-11.9,3.43a3.25,3.25,0,0,1-4.35-2.33l-8.69-32.38a4.6,4.6,0,0,1,3.34-5.78l71.06-19.08A4.81,4.81,0,0,1,532.54,657.1Z"/><path d="M686.77,728.44,619.19,624c-7.58-11.72-21.58-14.72-33.29-7.14l-31,20a23.64,23.64,0,0,0-7.26,33.1l67.59,104.47a8.93,8.93,0,0,0,12.56,2.86l17-11c4.34-2.81,5.29-8,2.48-12.32l-29-44.77c-2-3-5.31-4.07-8.86-4.18q-7.49-.39-12.07-7.47l-4.77-7.37c-2.08-3.21-1.46-6.82,1.75-8.9l16.06-10.39a6.21,6.21,0,0,1,8.83,2.06l4.77,7.37a16.1,16.1,0,0,1,1.48,14.31c-1.35,3.29-1.59,6.66.25,9.49l29.08,45a8.7,8.7,0,0,0,12.26,2.79l17.19-11.12A8.7,8.7,0,0,0,686.77,728.44ZM598.5,662l-7.18,4.65c-2.83,1.83-6.58,2.65-9.24.62a23.57,23.57,0,0,1-5.22-6c-4.77-7.37-.26-13.24,5-16.66,5.67-3.67,12.87-5.38,17.64,2a50.92,50.92,0,0,1,3.29,5.91C604.33,656.09,601.71,659.92,598.5,662Z"/><path d="M642.44,620.32c-2.28,2.78-4.65,1.41-5.87.41l-15.29-12.58c-7.65-6.29-9.83-15.67-3.54-23.32L632,567.46a9.13,9.13,0,0,1,13-1.27l107.37,88.36a9.11,9.11,0,0,1,1.26,13L733.5,692a9.12,9.12,0,0,1-13,1.26L656.92,641c-7.47-6.15-8.18-18.39-3.57-26.83C650.92,612.14,645,617.19,642.44,620.32Z"/><path d="M692.92,464.57,819.07,512a11.25,11.25,0,0,1,6.67,14.8l-8.28,21.88c-2.38,6.32-8.9,8.91-15.21,6.52C756.58,538,738,527.32,732.18,542.68l-.16.42a3.46,3.46,0,0,0,2,4.35l5.68,2.15c2.31.88,3.37-.65,5.72-2.41,3.3-2.36,7.69,0,13.79,2.33l38.94,14.73a12.58,12.58,0,0,1,7.32,16.24l-7.64,20.2A11.24,11.24,0,0,1,783,607.37L657.24,559.56a11.24,11.24,0,0,1-6.67-14.79l2.54-6.74a13.85,13.85,0,0,1,9.24-8.53l60-18.69c1.87-.49,1.75-2.7.07-3.34-13.47-5.09-20.26-8.14-25.3-3.07a6.18,6.18,0,0,1-6.75,1.29l-13.26-5A9.22,9.22,0,0,1,671.66,489l6.68-17.68C680.65,465.22,686.82,462.26,692.92,464.57Z"/><path d="M625.14,393.29a7.26,7.26,0,0,0-3.68-4,7.15,7.15,0,0,0-9.51,3.42l-.41.88a58.71,58.71,0,0,1-6.6,11.05,66.8,66.8,0,0,1-8.1,8.68c-.47.42-1,.84-1.43,1.24A76.87,76.87,0,0,1,577,426.3a60.45,60.45,0,0,1-10.53,3.56,51.19,51.19,0,0,1-11.91,1.44h-.23a44.79,44.79,0,0,1-11.71-1.6,60.55,60.55,0,0,1-12.29-5.09l-.57-.29a6.9,6.9,0,0,0-9.37,9.18A43,43,0,0,0,532.27,448a49.72,49.72,0,0,0,17.56,8.84h0a2,2,0,0,1,1.14,3.1,156.09,156.09,0,0,1-19.15,22.77l-2.4,2.3c-.8.76-1.58,1.56-2.43,2.27-1.68,1.45-3.31,3-5,4.38s-3.41,2.85-5.18,4.2-3.55,2.69-5.36,4a163,163,0,0,1-22.94,13.8q-2,1-4,1.89a67.29,67.29,0,0,1-11.86.77,75.62,75.62,0,0,1-23.86-4.63,99.17,99.17,0,0,1-22-11.38c-.86-.59-1.73-1.15-2.58-1.76l-2.5-1.9c-.82-.64-1.69-1.23-2.48-1.92l-2.42-2c-1.64-1.32-3.11-2.73-4.62-4.12-.74-.71-1.45-1.47-2.18-2.2l-1.09-1.1-1.05-1.16a229.29,229.29,0,0,1-16-20.25c-5.24-7.17-10.63-14.58-16.9-21.65-1.62-1.74-3.19-3.5-4.92-5.18l-.95-.95a58,58,0,0,0-4.68-4.17,52,52,0,0,0-9.44-5.94A44.75,44.75,0,0,0,342.59,422a42.22,42.22,0,0,0-8.35-.48A39.28,39.28,0,0,0,318,425.83a42.27,42.27,0,0,0-12.89,10.5,49.7,49.7,0,0,0-4.64,6.62c-.63,1.17-1.31,2.31-1.86,3.5-.28.59-.58,1.17-.85,1.78l-.79,1.86a58.44,58.44,0,0,0-3.69,15.24,76.6,76.6,0,0,0-.06,15.06c.12,1.3.26,2.59.44,3.88-1.21-1.29-2.39-2.63-3.53-4a112.92,112.92,0,0,1-14.8-22.15c-.48-1-1-2-1.48-3l-1.31-3.05c-.16-.34-.31-.69-.46-1a37.06,37.06,0,0,0,8.55-6.44,32.43,32.43,0,0,0,6.55-9.4,23.6,23.6,0,0,0,2.24-11.19,4.72,4.72,0,0,0-8-3l-.47.47a53.51,53.51,0,0,1-5.85,5.11,55.41,55.41,0,0,1-6,3.85c-.92.5-1.86,1-2.8,1.43a52,52,0,0,1-9.9,3.64,37.91,37.91,0,0,1-6.89,1.08,28.72,28.72,0,0,1-5.94-.21,25.52,25.52,0,0,1-6.45-1.77,38.94,38.94,0,0,1-6.91-3.91l-.33-.23a4,4,0,0,0-6.17,4,23.77,23.77,0,0,0,4.67,10.14,28.07,28.07,0,0,0,9.13,7.58,33.18,33.18,0,0,0,11.46,3.49,36.45,36.45,0,0,0,4.54.24q1.59,5.28,3.69,10.37A125.85,125.85,0,0,0,272.87,494a145.93,145.93,0,0,0,21.56,23.13,171.67,171.67,0,0,0,15.86,12.11h0c1,1.68,2.13,3.32,3.26,4.94a100.59,100.59,0,0,0,20,21.47,73,73,0,0,0,12.93,8.15,58.87,58.87,0,0,0,15,5.08,54.81,54.81,0,0,0,8.12.88,50.17,50.17,0,0,0,8.21-.44,54,54,0,0,0,15.58-4.61l.16-.07a10.45,10.45,0,0,0,.93-.51A100.77,100.77,0,0,0,410.91,569a118.65,118.65,0,0,0,40.73,1l.1,0a7.9,7.9,0,0,0,.8-.14,11.13,11.13,0,0,0,2.71-1,101.29,101.29,0,0,0,19.53-6,105.24,105.24,0,0,0,30.8-20.13c3-2.81,6-5.57,8.78-8.44a179.67,179.67,0,0,0,39-30.1,162.41,162.41,0,0,0,20-24.92,145.51,145.51,0,0,0,11.64-21.58,6,6,0,0,1,3.3-3.18h0a63.57,63.57,0,0,0,30.08-23.46,50.44,50.44,0,0,0,7.69-18.13A36.42,36.42,0,0,0,625.14,393.29ZM465.28,542.23a79.66,79.66,0,0,1-17.22,6.41l-.21,0c-3.4.76-6.84,1.34-10.29,1.76a73.78,73.78,0,0,1-9.05.29,25,25,0,0,0-4.67.46,88.76,88.76,0,0,1-9.78-.68,79.06,79.06,0,0,1-31.67-11,80.62,80.62,0,0,1-24.5-23.83,113.56,113.56,0,0,1-14.62-32.35l0-.07a5,5,0,0,0-9.7,2.4,124.73,124.73,0,0,0,13.36,36.8,95.46,95.46,0,0,0,24.66,28.68c-2.74-.4-5.21-.82-6.61-1.07-6.89-1.19-13.75-4.57-19.92-9.26a74.33,74.33,0,0,1-8.79-7.92,94.08,94.08,0,0,1-7.71-9.33,104,104,0,0,1-10.67-18.77c-.38-.89-.76-1.77-1.12-2.67a87.32,87.32,0,0,1-6-23.37c-.82-7.84-.28-15.68,2.26-22.28l.49-1.23c.18-.41.39-.82.58-1.23.37-.85.82-1.62,1.24-2.42a31.31,31.31,0,0,1,2.95-4.35,24.81,24.81,0,0,1,7.56-6.4A23.79,23.79,0,0,1,345,439.62a33.42,33.42,0,0,1,9.34,5.12,43.55,43.55,0,0,1,4.29,3.8c1.5,1.41,2.9,2.95,4.34,4.45,5.64,6.18,10.86,13.09,16.21,20.23a245.08,245.08,0,0,0,17.44,21.36l1.21,1.29,1.28,1.26c.85.83,1.68,1.69,2.56,2.5,1.78,1.6,3.56,3.26,5.4,4.7l2.73,2.22c.91.75,1.9,1.42,2.84,2.13l2.85,2.09c1,.68,2,1.32,2.95,2A113.66,113.66,0,0,0,444,525.46c2,.69,4,1.31,6.1,1.88a86.54,86.54,0,0,0,22.34,3.19A80.81,80.81,0,0,0,483,530,82,82,0,0,1,465.28,542.23Z"/><path d="M472.94,362.57c5.69-3.09,11.42-6.1,17.34-8.72a140.49,140.49,0,0,1,25.26-8.72A118.11,118.11,0,0,1,541.46,342c1.09,0,2.2-.09,3.29,0l3.29.16,1.66.05c.56,0,1.1.11,1.65.17,1.1.12,2.21.21,3.33.32.56.07,1.14.07,1.68.17l1.66.28c1.12.16,2.25.34,3.39.48a15.47,15.47,0,0,1,1.7.31l1.7.34c1.15.2,2.3.44,3.5.6l.64.09a4.56,4.56,0,0,0,3.38-8.14,66,66,0,0,0-6.53-4.61c-1.16-.65-2.34-1.28-3.53-1.91a32,32,0,0,0-3.66-1.72A61.76,61.76,0,0,0,551,326l-3.94-1a14.94,14.94,0,0,0-2-.41l-2-.32a79.13,79.13,0,0,0-32.22,1.62,93.6,93.6,0,0,0-29,13c-1.82,1.23-3.59,2.53-5.33,3.87a65.71,65.71,0,0,1,14-16.21A74.39,74.39,0,0,1,509,315.63c3.35-1.44,6.82-2.72,10.43-3.9s7.36-2.24,11.33-3.45l.2-.06a4.71,4.71,0,0,0,.12-8.94,43.22,43.22,0,0,0-13.7-2.14,53.91,53.91,0,0,0-14,1.84,60.52,60.52,0,0,0-24.81,13.86,64.19,64.19,0,0,0-16.1,23.2A66.51,66.51,0,0,0,458,356c-.17,2.57-.84,6.12.66,8.37C462.35,370,468.92,364.75,472.94,362.57Z"/><path d="M269.44,378.4a4.55,4.55,0,0,0,5.72-2.94l.06-.2a45.63,45.63,0,0,1,6.11-12.66,36.59,36.59,0,0,1,9.41-9.17,46.85,46.85,0,0,1,25.18-7.55,48.05,48.05,0,0,1,25.36,6.35,35.61,35.61,0,0,1,9.64,8.53A43.62,43.62,0,0,1,357.41,373l.07.22a4.58,4.58,0,0,0,8.87-1.26,38.11,38.11,0,0,0-3.45-18.17A41.48,41.48,0,0,0,351,338.71,49.87,49.87,0,0,0,334,330c-1.53-.4-3-.86-4.59-1.17s-3.09-.59-4.65-.76-3.12-.37-4.68-.4-3.14-.09-4.7,0a58.31,58.31,0,0,0-18.38,3.6,51.13,51.13,0,0,0-16.28,9.69A43.8,43.8,0,0,0,269.6,356.3a41.65,41.65,0,0,0-3.32,18A4.55,4.55,0,0,0,269.44,378.4Z"/></svg>