<svg id="Layer_1" data-name="Layer 1" xmlns="http://www.w3.org/2000/svg" viewBox="0 0 870.75 366.75"><defs><style>.cls-1{fill:#231f20;}</style></defs><path class="cls-1" d="M79.63,30.85a31.61,31.61,0,0,0-8.83.84C65.55,33.13,62,38.48,62,44.19a14.73,14.73,0,0,0,4.3,10.34c3.12,3,7.15,3.49,11.21,3.68,4.86.24,7.3.35,12.16.56a6,6,0,0,1,5.49,6.09V73.1a4.75,4.75,0,0,1-4.77,5q-16.23-1-32.44-2.13c.24,6.71,5,12,10.25,15.52,6.18,4.13,13.36,7.83,19.81,12,4.29,2.69,9.3,5.42,12.88,9.36,6.2,7.29,6,17.3,6.2,26.24q.36,21.79.71,43.6c0,4.92-4.29,8.41-9.78,7.82-23.24-2.57-46.21-6-69.18-10.42A12.75,12.75,0,0,1,19,168V82.26c-.09-11,8.39-18,18.85-18C27.1,62.07,19.93,50.85,19,40.41V20a13.83,13.83,0,0,1,13.6-14h76.1c2.38,0,4.53,2.46,4.53,5.2V46.46a5,5,0,0,1-5,5.25l-10.73-.36C86.83,50.7,79.64,41.14,79.63,30.85Z"/><path class="cls-1" d="M132.59,56.75c-3.82-.1-4.3-3.38-4.3-5.28V27.39C128,17.31,133.61,6,145,5.9h23.86c5.48,0,9.78,5.09,9.78,11.57V184.79c0,6-4.3,10.57-9.78,10.45-11.23-.33-22.42-.78-33.64-1.38-5.49-.33-9.78-5.3-9.78-11.28V85.75c.29-11.26,8.7-20.79,19.56-23.22C145,58.7,136.88,56.87,132.59,56.75Z"/><path class="cls-1" d="M289.19,54.71V43.92c0-17.09-12.49-38.67-32-38H204.74c-5.25,0-9.78,5.4-9.78,11.62V184.65a10.18,10.18,0,0,0,8.35,10.27c5.49-.06,15.27-.26,19.56-.37l4.06-.12c7.16-.22,10.5-6.43,10.5-14.36V120.82c0-1.07.23-2.14-.48-2.93-.48-.8-1.67-1-3.82-1-4.77,0-8.35-4.49-8.35-9.89v-2.15c8.35,0,17.42-.64,20.28,2.28,3.34,3.19,2.38,9.88,2.38,17v55.33c0,8.14,6.21,14.39,13.84,14,5.92-.34,8.88-.52,14.79-.91,7.4-.49,13.12-7,13.12-14.48v-66c0-1.32-.71-2.35-1.91-2.32l-1.9,0c-21.71.57-21.47-8.59-21.47-8.59C287.24,101.2,289.58,72.08,289.19,54.71Zm-39.12-1.44c.43,12.08-7.91,21.56-19.8,22.95-2.86.55-5.49-1.92-5.73-5.22V47.42a5.27,5.27,0,0,1,5-5h15.27c2.86,0,5.25,2.79,5.25,6.13Z"/><path class="cls-1" d="M362.8,30.74A31.26,31.26,0,0,0,354,32c-5.25,1.73-8.83,7.45-8.83,13.29a13.71,13.71,0,0,0,4.3,10.12c3.11,2.74,7.15,2.78,11.21,2.57l12.64-.66a4.84,4.84,0,0,1,5,4.85v8.17a5.66,5.66,0,0,1-5,5.69l-14.55,1c-16.3,1-17.26,28,0,26.16l4.05-.34c.14-10,7.21-19.12,17.42-20.18l11.45-.86a4.48,4.48,0,0,1,4.77,4.64V158a26,26,0,0,1-22.18,25.09q-30.87,3.51-61.79,6.51c-5.73.53-10.26-3.71-10.26-9.63V101.36c.44-12.83,8-27.3,21.23-31C309.92,67,302.56,54.56,302.2,41.14V18.3c0-6.73,4.53-12.4,10.5-12.4h73c6,0,10.73,5.1,10.73,11.47V43.75a5.51,5.51,0,0,1-5,5.54l-10.73.51C370.05,50.14,362.75,40.85,362.8,30.74Z"/><path class="cls-1" d="M471.33,44.22l-19.15.9a24.59,24.59,0,0,0-22.8,24.4v83.75a20.2,20.2,0,0,0,22.8,20.4c7.66-.94,11.49-1.41,19.15-2.33a26.73,26.73,0,0,0,22.8-25.61V65.08C494,52.74,483.41,43.75,471.33,44.22Zm3.46,47.16V103c0,7.24-6.11,13.59-13.31,14.25-7,.65-12.77-4.93-12.77-12.28V93.7c0-7.17,5.74-14,12.77-14.6A12,12,0,0,1,474.79,91Z"/><path class="cls-1" d="M587.59,47.47,587.77,150a10,10,0,0,1-9.3,10c-7.59.64-11.38,1-19,1.7-5.48.51-9.32-3.35-9.31-8.8,0-10,7.26-54.4-10.58-54.43l-.36,0a3.07,3.07,0,0,0-2.74,2.87v4.74c0,1.93,1.5,2.14,3.47,3.2,2.72,1.46,2.19,5.43,2.19,10.58v33.27A11.61,11.61,0,0,1,532,164.4c-7,.74-10.5,1.13-17.51,1.91a8,8,0,0,1-9.3-8.31l.18-106.53c0-5,4-9,9.31-9.23l5.83-.25a11.07,11.07,0,0,1,9.12,3.8Q545.19,63.49,561,81a1.45,1.45,0,0,0,2.55-1c0-10.85.36-16.33-4.93-18.18a4.29,4.29,0,0,1-2.91-4.17V47.22c0-3.62,3.28-6.86,7.29-7l15.32-.6C583.57,39.4,587.59,42.8,587.59,47.47Z"/><path class="cls-1" d="M686.67,42.82V66.7a2.57,2.57,0,0,1-2.92,2.39c-4-.12-6-.17-10-.27a1.94,1.94,0,0,1-1.82-1.31c-.91-8.27-6.75-6.83-10.4-6.85,0,12,1.77,21.64,7.93,31.62,2.84,4.58,7.06,5.09,7.94,11.12v48.32a4,4,0,0,1-4,3.85q-20.54.18-41,1.07a3.64,3.64,0,0,1-3.83-3.73V103.7c1.23-6.16,4.87-6.47,7.84-11.31,6-9.86,8.23-20,7.84-31.76-3.65,0-9.48-1.47-10.39,6.83a1.57,1.57,0,0,1-1.65,1.32c-4,.09-6,.13-10,.24a2.5,2.5,0,0,1-2.92-2.42v-24c0-1.9,1.65-3.33,3.83-3.34q29.84-.08,59.65.18C684.85,39.47,686.67,40.91,686.67,42.82Z"/><path class="cls-1" d="M780.5,153.92c.54,3.7-2.74,6.46-6.75,6-9.56-1-14.34-1.39-23.9-2.09-3.65-.26-6.75-3-6.75-6.31V104.72c0-2.18,2.19-3.57,4-4.14a3.72,3.72,0,0,0,1.45-.76,1.68,1.68,0,0,0,.55-1.64c-.07-.45,0-2.51,0-4.35A3,3,0,0,0,746.2,91c-6-.3-9-.44-15-.69a2.56,2.56,0,0,0-2.74,2.38v4.48a2.4,2.4,0,0,0,.37,1.68,3.66,3.66,0,0,0,1.45.9c1.83.74,4,2.35,4,4.52v46.78c0,3.26-2.92,5.68-6.75,5.5-9.49-.44-14.23-.6-23.71-.8-4.2-.09-7.3-3.24-6.75-6.85V45.81c-.55-3.36,2.55-6.17,6.75-6.11,9.48.13,14.22.21,23.71.4,3.83.08,6.75,2.56,6.75,5.63V60.18c0,1.3-1.46,1.91-2.37,2.2a5.2,5.2,0,0,0-2.74,2.85,19.83,19.83,0,0,0-.73,3.74v1.8a2.79,2.79,0,0,0,2.74,2.55c6,.21,9,.33,15,.6a2.55,2.55,0,0,0,2.74-2.36V69.74a20.92,20.92,0,0,0-.55-3.81,5.68,5.68,0,0,0-2.92-3.08c-.91-.36-2.37-1.07-2.37-2.38V46c0-3.09,3.1-5.44,6.75-5.34,9.56.25,14.34.39,23.9.7,4,.14,7.29,3.26,6.75,6.74Z"/><path class="cls-1" d="M837.8,60.85a26.28,26.28,0,0,0-6.75.19,8.27,8.27,0,0,0-6.75,8.1,9.92,9.92,0,0,0,3.29,7.14c2.4,2.18,5.47,2.63,8.57,2.94,3.87.38,5.8.58,9.67,1a4.35,4.35,0,0,1,3.83,4V90a3.33,3.33,0,0,1-3.83,3.33c-4.45-.54-6.68-.81-11.13-1.31-13.8-1.14-11,16,0,18.18l3.1.42a11.44,11.44,0,0,1,13.32-11.55c3.5.47,5.25.71,8.75,1.2a4.4,4.4,0,0,1,3.65,4.22v53.36c0,9.42-7.66,15.17-17,13.24-15.64-3.28-31.42-5.91-47.25-8.11a9,9,0,0,1-7.84-8.53V101.25c0-9.08,6.75-16.58,16.23-17.83-9.48-2.9-16.23-11.2-16.23-20.18V49.38c0-4.05,3.47-7.28,8-7.1q27.91,1.22,55.81,2.86A8.87,8.87,0,0,1,863.52,54V73.15a3.4,3.4,0,0,1-3.83,3.45l-8.21-.87A15.3,15.3,0,0,1,837.8,60.85Z"/><path class="cls-1" d="M104.3,206.07c5.63.55,8.44.8,14.07,1.25s9.78,4.79,9.78,9.72q6.45,67.16,13.36,134.26c0,4.76-4.29,8.47-9.54,8.47H93.56a7.9,7.9,0,0,1-2.38-.22,9.07,9.07,0,0,1-7.4-8.71V312.89a11.73,11.73,0,0,1,.48-4.17c1.19-3.47,6.8-7.3,10.26-8.69a10.38,10.38,0,0,0,6.68-9.5q-1.33-14.44-2.63-28.89c0-1.34-3.34-2.05-4-1Q89.27,275.37,84,290.09c-.48,2-2.62,2.94-4.77,2.79-3-.2-4.44-.31-7.4-.53s-4.29-.77-5.24-3.55q-5.05-16-10-31.95c-.72-1.23-5.25-1.32-5.25.06q-.72,15.57-1.43,31.15c0,4.36,2.87,8.28,6.91,10.63,3.58,2.08,7.64,5.3,8.59,9a12.7,12.7,0,0,1,.72,4.31v38.69a9.21,9.21,0,0,1-7.4,8.89,8.37,8.37,0,0,1-2.38.23H17.94a9.75,9.75,0,0,1-9.78-9.94q6.69-73.51,13.6-147c0-5.26,4.29-8.62,9.54-7.56,6,1.22,9,1.79,15,2.87,13.24,2.85,26.31,13.2,28.86,27.18C78.27,212,91.22,204.7,104.3,206.07Z"/><path class="cls-1" d="M206.4,210c-10,.14-15,.15-25.05.05-15.55-.83-29.08,12-29.82,27.17V334c.82,15,14.91,26.48,29.82,25.81H206.4c13.5-.42,30.39-9.49,29.82-25.19V237.82C236.87,221.58,221.18,210.38,206.4,210Zm4.53,58.84v13.84c0,8.59-8,15.22-17.41,15-9.2-.21-16.7-7.46-16.7-16.05V268.5c0-8.46,7.51-15.87,16.7-15.9,9.43,0,17.41,7.12,17.41,15.83Z"/><path class="cls-1" d="M250.6,217.92a9.79,9.79,0,0,1,9.55-9.8c8-.45,12-.7,20-1.25a8.56,8.56,0,0,1,9.54,8.86v30.14a5.31,5.31,0,0,1-4.06,5.45c-5.48,1.6-6.2,6.37-6.68,10.43-1.69,13.29-.95,36.72,18.37,35.61,19.1-1.09,20.18-23.77,18.37-37.92-.48-4.07-1.19-8.83-6.68-9.74a4.56,4.56,0,0,1-4.05-4.95V214.48A10.41,10.41,0,0,1,314.54,204c8-.75,12-1.15,20-2,5.48-.56,9.54,3.09,9.54,8.58V336.73c.75,14.16-12.94,22.77-25.53,23H276.13c-12.81.69-25-8.4-25.53-21.52Z"/><path class="cls-1" d="M467.52,198.61l.24,148.32c0,7.29-5.25,12.84-12.16,12.84H430.79c-7.16,0-12.19-5.46-12.17-12.54,0-11.19,9.44-75.1-13.84-72.79l-.47,0a4.08,4.08,0,0,0-3.58,3.86v6.36c0,2.59,1.95,2.9,4.53,4.36,3.56,2,2.86,7.35,2.86,14.19V346.7a13.19,13.19,0,0,1-13.36,13.07h-22.9c-6.92,0-12.16-4.79-12.16-11.16l.24-137A13.73,13.73,0,0,1,372.1,198l7.64-.88a13,13,0,0,1,11.92,4.61q20.58,24.09,41,48.27c1.2,1.57,3.31.35,3.34-1.55.18-8.74,1.93-20.44-6.44-25.9a5.75,5.75,0,0,1-3.81-5.83V201.46c0-5.31,4.29-10.44,9.54-11.08l20-2.46C462.28,187.07,467.52,191.54,467.52,198.61Z"/><path class="cls-1" d="M570.1,180.46v37.18c0,2.28-1.9,4.23-3.81,4.14-5.25.35-7.87.53-13.12.91a2.33,2.33,0,0,1-2.39-1.81c-1.19-12.78-8.82-9.72-13.6-9.25.42,16.33.28,34.54,10.38,48.3,4.22,5.75,10.69,8.42,10.38,16.69v77c0,3.34-2.39,6.14-5.25,6.14H499c-2.86,0-5-2.61-5-5.73V281.2c-.15-8.24,6.21-11.6,10.25-17.7,9.65-14.56,9.83-32.67,10.26-49.54-4.77.5-12.4-.93-13.6,11.88a2.43,2.43,0,0,1-2.14,2.21l-13.12,1.64a3.1,3.1,0,0,1-3.82-3.3V189.83a5.72,5.72,0,0,1,5-5.71c26-3,52-5.87,78-8.33A4.62,4.62,0,0,1,570.1,180.46Z"/><path class="cls-1" d="M648.35,170.7q-19.58.59-39.12,1.76c-14.73.28-25,14.35-25.53,28V348.11c0,6.51,4.06,11.66,9.55,11.66h21.47c5.48,0,9.3-4.88,9.3-11.41v-66c0-4.35-2.44-7.58-5.49-10-4.28-3.39-6.44-8.54-6.44-15.21V246.85c0-4.5,2.63-7.72,6.68-7.81,8.11-.17,12.17-.24,20.28-.33,3.82-.05,6.68,3.12,6.68,7.66v10.46c0,5.65-2.4,11.74-6.92,15.43-3,2.46-5.25,5.72-5.25,9.82v66.28c0,6.54,4.06,11.41,9.31,11.41h21.71c5.24,0,9.3-4.85,9.3-11.36V197.92A25.75,25.75,0,0,0,648.35,170.7Zm-5.48,45c-.72,4.46-5.25,6.64-9.31,6.72-3.62.07-5.44.11-9.06.2s-7.38-1.41-8.59-5a29.05,29.05,0,0,1-1.19-9c0-10,7.39-13.11,14.07-13.34,7.16-.24,14.55,2.39,14.55,12.55A66.24,66.24,0,0,1,642.87,215.72Z"/><path class="cls-1" d="M697,218.69c-3.82-.08-4.29-3.26-4.29-5.11V190.47c-.26-9.9,5.71-20.24,16.7-19.95,9.54.26,14.31.44,23.85.95,5.49.29,9.78,5.24,9.78,11.22V348.43c0,6.35-4.29,11.34-9.78,11.34H699.59c-5.49,0-9.79-5.11-9.79-11.6V247.37c.29-11.24,8.68-20.76,19.57-23.07C709.37,220.58,701.26,218.77,697,218.69Z"/><path class="cls-1" d="M865.92,202.21l.24,145.2A12,12,0,0,1,854,359.77H829.18c-7.15,0-12.18-6-12.16-13.77,0-13.59,10.26-78.93-13.84-81.44l-.48,0a3.46,3.46,0,0,0-3.58,3.59v7c0,2.87,2,3.53,4.54,5.55,3.57,2.8,2.86,8.51,2.86,16.05v48.32c0,8.13-6,14.71-13.36,14.71h-22.9c-6.92,0-12.17-6-12.17-14l.24-159.4c0-7.54,5.25-12.81,12.17-12.13,3,.3,4.58.46,7.63.79a16.42,16.42,0,0,1,11.93,7.8q20.49,30.73,41,61.44c1.19,1.92,3.3,1.16,3.34-.81.16-8.5,2-22.82-6.44-28.62a8.33,8.33,0,0,1-3.82-7.14V191.84c0-5.55,4.3-9.59,9.54-8.61,8,1.51,12,2.32,20,4.08A15.6,15.6,0,0,1,865.92,202.21Z"/></svg>