<svg id="Layer_1" data-name="Layer 1" xmlns="http://www.w3.org/2000/svg" viewBox="0 0 405 511.87"><defs><style>.cls-1{fill:#231f20;}</style></defs><path class="cls-1" d="M75.42,37.56a34,34,0,0,0-8.73.95A12.1,12.1,0,0,0,58,50.07a12.57,12.57,0,0,0,4.24,9.21c3.31,2.59,7.08,2.83,11.1,2.83h12a5.29,5.29,0,0,1,5.43,5.19v7.31A4.73,4.73,0,0,1,86,79.33H53.94c.24,6.14,5,10.62,10.15,13.46,6.14,3.3,13.22,6.13,19.59,9.44,4.25,2.12,9.2,4.24,12.74,7.55,6.14,6.13,5.9,15.1,6.14,23.12l.71,39.42c0,4.48-4.25,8-9.68,8l-68.44.24a9.57,9.57,0,0,1-9.67-9.68V88.54c0-18.17,18.64-18.64,18.64-18.64-9.67,0-18.64-13.22-18.64-21.48V28.83A13.45,13.45,0,0,1,28.93,15.38h75.28a4.64,4.64,0,0,1,4.48,4.48V50.54a4.78,4.78,0,0,1-5,4.72H93.12A17.52,17.52,0,0,1,75.42,37.56Z"/><path class="cls-1" d="M127.81,59c-3.77,0-4.25-2.83-4.25-4.48V33.79c0-10.39,6.14-18.41,16.52-18.41h23.6a9.57,9.57,0,0,1,9.68,9.68V170.9a9.57,9.57,0,0,1-9.68,9.68H130.41a9.57,9.57,0,0,1-9.68-9.68V84.53c0-10.15,9.44-18.88,19.35-20.77C140.08,60.46,132.06,59,127.81,59Z"/><path class="cls-1" d="M282.73,56.44v-9.2a31.83,31.83,0,0,0-31.62-31.86H199.19a9.87,9.87,0,0,0-9.67,9.68v145.6a9.62,9.62,0,0,0,8.26,9.44h23.36c7.08,0,10.38-5.66,10.38-13V113.55c0-.94.24-1.88-.47-2.59-.47-.71-1.65-.95-3.77-.95a8.47,8.47,0,0,1-8.26-8.73V99.39c8.26,0,17.22-.47,20.06,2.13,3.3,2.83,2.36,8.73,2.36,15.1v50.27a13.7,13.7,0,0,0,13.68,13.69h14.63a12.94,12.94,0,0,0,13-13V106.71a1.92,1.92,0,0,0-1.88-2.12H279c-21.48,0-21.24-8-21.24-8C274.47,96.56,282.73,85.71,282.73,56.44ZM244,55c0,12-8.26,18.17-19.59,19.58a4.92,4.92,0,0,1-5.66-4.48V50.07a4.89,4.89,0,0,1,5-4.25h15.1A5.24,5.24,0,0,1,244,51Z"/><path class="cls-1" d="M355.54,37.56a34.13,34.13,0,0,0-8.73.95,12.1,12.1,0,0,0-8.73,11.56,12.55,12.55,0,0,0,4.25,9.21c3.3,2.59,7.08,2.83,11.09,2.83h12.51a4.94,4.94,0,0,1,4.95,4.72v7.55a5,5,0,0,1-4.95,5h-14.4c-17,0-17,24.08,0,24.08h4a17.38,17.38,0,0,1,17.23-17.47H384.1a4.74,4.74,0,0,1,4.72,4.72v68.2a21.86,21.86,0,0,1-21.95,21.72H305.75a10.08,10.08,0,0,1-10.15-10.15V97.74a27.23,27.23,0,0,1,21-26.43,27,27,0,0,1-21-26.19V25.76A10.33,10.33,0,0,1,306,15.38H378.2A10.58,10.58,0,0,1,388.82,26V50.54a5,5,0,0,1-5,5H373.24A17.73,17.73,0,0,1,355.54,37.56Z"/><path class="cls-1" d="M50.71,200.57H33.53A20.46,20.46,0,0,0,13.07,221v73.66a20.47,20.47,0,0,0,20.46,20.46H50.71a20.47,20.47,0,0,0,20.47-20.46V221A20.47,20.47,0,0,0,50.71,200.57Zm3.11,43.21v10.47a11.64,11.64,0,0,1-11.94,11.63c-6.39,0-11.46-5.57-11.46-12.12v-10a12.06,12.06,0,0,1,11.46-12.11,11.87,11.87,0,0,1,11.94,11.78Z"/><path class="cls-1" d="M154.09,208.75l.16,98.05a8.18,8.18,0,0,1-8.35,8.35h-17c-4.91,0-8.35-3.77-8.35-8.68,0-35.52,2.46-50.91-9.49-50.91h-.33a2.52,2.52,0,0,0-2.45,2.46v4.42c0,1.8,1.3,2.13,3.11,3.27,2.45,1.64,2,5.24,2,10V306a9.16,9.16,0,0,1-9.17,9.17H88.45a8.18,8.18,0,0,1-8.35-8.35l.17-97.89a8.17,8.17,0,0,1,8.34-8.34h5.24a10.1,10.1,0,0,1,8.19,4.09l28.15,36a1.25,1.25,0,0,0,2.29-.82c0-10.48.33-15.88-4.42-18a4.52,4.52,0,0,1-2.62-4.26V207.28a6.71,6.71,0,0,1,6.55-6.71h13.75A8,8,0,0,1,154.09,208.75Z"/><path class="cls-1" d="M232.89,204v24.39a2.45,2.45,0,0,1-2.62,2.46l-9-.17a1.76,1.76,0,0,1-1.64-1.31c-.82-8.34-6.06-6.87-9.33-6.87,0,39.28,14.24,30.94,14.24,42.56v46.49a3.64,3.64,0,0,1-3.6,3.6H184.11a3.5,3.5,0,0,1-3.44-3.6V265.06c0-11.62,14.08-3.28,14.08-42.56-3.27,0-8.51-1.47-9.33,6.87a1.44,1.44,0,0,1-1.47,1.31l-9,.17a2.37,2.37,0,0,1-2.62-2.46V204a3.36,3.36,0,0,1,3.44-3.43h53.53A3.49,3.49,0,0,1,232.89,204Z"/><path class="cls-1" d="M316.13,308.76c.49,3.44-2.46,6.39-6.06,6.39H288.63a5.85,5.85,0,0,1-6.06-5.57V264.4c0-2.12,2-3.6,3.6-4.25a3.57,3.57,0,0,0,1.31-.82,2,2,0,0,0,.49-1.64,35.65,35.65,0,0,1,0-4.25,2.58,2.58,0,0,0-2.62-2.62H271.93a2.51,2.51,0,0,0-2.45,2.45v4.42a2.67,2.67,0,0,0,.33,1.64,3.52,3.52,0,0,0,1.3.82c1.64.65,3.61,2.13,3.61,4.25v45.18a5.75,5.75,0,0,1-6.06,5.57H247.38c-3.76,0-6.55-2.95-6.06-6.39V207c-.49-3.44,2.3-6.38,6.06-6.38h21.28a5.74,5.74,0,0,1,6.06,5.56V220.7c0,1.31-1.31,2-2.13,2.29a4.47,4.47,0,0,0-2.46,2.95,13.76,13.76,0,0,0-.65,3.76v1.8a2.52,2.52,0,0,0,2.45,2.46h13.42a2.53,2.53,0,0,0,2.46-2.46v-1.8a25.17,25.17,0,0,0-.49-3.76A5.19,5.19,0,0,0,284.7,223c-.82-.33-2.13-1-2.13-2.29V206.13a5.84,5.84,0,0,1,6.06-5.56h21.44c3.6,0,6.55,2.94,6.06,6.38Z"/><path class="cls-1" d="M365.64,216a23.76,23.76,0,0,0-6.06.66,8.39,8.39,0,0,0-6.05,8,8.7,8.7,0,0,0,2.94,6.38c2.29,1.8,4.91,2,7.7,2h8.67a3.43,3.43,0,0,1,3.44,3.27v5.24a3.46,3.46,0,0,1-3.44,3.43h-10a8.36,8.36,0,1,0,0,16.7h2.78a12,12,0,0,1,11.95-12.11h7.86a3.28,3.28,0,0,1,3.27,3.27v47.31a15.17,15.17,0,0,1-15.22,15.06H331.1a7,7,0,0,1-7-7V257.69a18.9,18.9,0,0,1,14.57-18.33,18.71,18.71,0,0,1-14.57-18.17V207.77a7.16,7.16,0,0,1,7.21-7.2h50.08a7.33,7.33,0,0,1,7.37,7.36v17a3.45,3.45,0,0,1-3.44,3.44h-7.36A12.29,12.29,0,0,1,365.64,216Z"/><path class="cls-1" d="M102.05,338H116a9.52,9.52,0,0,1,9.68,9.44l13.21,146.08a9.52,9.52,0,0,1-9.44,9.67h-38a7.44,7.44,0,0,1-2.36-.23,9.65,9.65,0,0,1-7.32-9.44V452.71a13.81,13.81,0,0,1,.47-4.48c1.18-3.78,6.61-8.26,10.15-9.91A12.1,12.1,0,0,0,99,427.7L96.38,397c0-1.42-3.3-1.89-4-.71L82,428.4a4.62,4.62,0,0,1-4.72,3.31H70c-2.83,0-4.25-.47-5.19-3.31l-9.91-32.09c-.71-1.18-5.19-.71-5.19.71l-1.42,32.09c0,4.48,2.83,8.26,6.84,10.39,3.54,1.88,7.56,4.95,8.5,8.73a13.75,13.75,0,0,1,.71,4.48v40.83A9.65,9.65,0,0,1,57,503a8.23,8.23,0,0,1-2.36.23h-38a9.57,9.57,0,0,1-9.68-9.67L20.39,347.46A9.47,9.47,0,0,1,29.83,338H44.7a29.07,29.07,0,0,1,28.56,23.36A29.3,29.3,0,0,1,102.05,338Z"/><path class="cls-1" d="M257.87,349.82l.23,141.36a11.79,11.79,0,0,1-12,12H221.53c-7.08,0-12-5.42-12-12.51,0-51.2,3.54-73.39-13.69-73.39h-.47a3.63,3.63,0,0,0-3.54,3.54v6.37c0,2.6,1.89,3.07,4.48,4.72,3.54,2.36,2.84,7.56,2.84,14.4V490a13.19,13.19,0,0,1-13.22,13.21H163.23a11.79,11.79,0,0,1-12-12l.24-141.13a11.79,11.79,0,0,1,12-12H171a14.52,14.52,0,0,1,11.8,5.9l40.59,51.92c1.18,1.65,3.31.7,3.31-1.18,0-15.11.47-22.9-6.38-26a6.49,6.49,0,0,1-3.77-6.14V347.69A9.67,9.67,0,0,1,226,338h19.82C252.68,338,257.87,343,257.87,349.82Z"/><path class="cls-1" d="M358.35,343v35.17a3.53,3.53,0,0,1-3.78,3.54l-13-.24a2.54,2.54,0,0,1-2.36-1.89c-1.18-12-8.73-9.91-13.45-9.91,0,56.64,20.53,44.6,20.53,61.36v67a5.24,5.24,0,0,1-5.19,5.19H288a5,5,0,0,1-5-5.19V431c0-16.76,20.3-4.72,20.3-61.36-4.72,0-12.27-2.12-13.45,9.91a2.08,2.08,0,0,1-2.13,1.89l-13,.24a3.41,3.41,0,0,1-3.77-3.54V343a4.83,4.83,0,0,1,5-5h77.17A5,5,0,0,1,358.35,343Z"/><rect class="cls-1" x="367.2" y="474.57" width="28.64" height="28.64" rx="6.52"/></svg>