<svg id="Layer_1" data-name="Layer 1" xmlns="http://www.w3.org/2000/svg" viewBox="0 0 496.12 397.12"><defs><style>.cls-1{fill:#231f20;}</style></defs><path class="cls-1" d="M74.91,39.18a32,32,0,0,0-9.1.86c-5.4,1.5-9.06,7.1-9,13.08A15.76,15.76,0,0,0,61.31,64c3.24,3.18,7.41,3.66,11.58,3.85,5,.23,7.52.32,12.53.48a6.1,6.1,0,0,1,5.67,6.22l0,8.48c0,3-2.17,5.38-4.86,5.28-11.18-.49-22.28-1.15-33.44-2,.3,7,5.28,12.53,10.72,16.14,6.4,4.25,13.81,7.92,20.44,12,4.42,2.6,9.56,5.15,13.24,9,6.38,7.05,6.18,17.08,6.46,26.05q.48,22,1,44c0,5-4.3,9.13-9.87,9.14A296.89,296.89,0,0,1,22.92,193c-5.89-1.7-10.58-7.87-10.59-13.68q0-44.09-.08-88.18C11.09,79.77,22,73.18,32,73.64,20.77,70.89,13.22,59.15,12.21,48.15c0-8.4,0-12.6,0-21a14.24,14.24,0,0,1,14-14.45h78.55c2.46,0,4.69,2.63,4.7,5.54l.15,37a5.19,5.19,0,0,1-5.12,5.5c-4.42-.06-6.62-.11-11-.21C82.3,60,75,49.81,74.91,39.18Z"/><path class="cls-1" d="M422.12,12.69h14.53c5.66,0,10.09,4.09,10.09,9.15,4.85,50.61,9.3,101.25,13.79,151.89,0,5.63-4.43,8.58-9.85,7.14A231.48,231.48,0,0,0,411,174.09a8.72,8.72,0,0,1-2.46-.44,10.55,10.55,0,0,1-7.63-9.91V122.83a13,13,0,0,1,.49-4.45c1.23-3.71,7-7.78,10.59-9.21a10.8,10.8,0,0,0,6.89-10q-1.34-15.26-2.7-30.51c0-1.39-3.45-2-4.19-.93q-5.44,15.45-10.84,30.94c-.49,2.08-2.71,3.14-4.92,3-3.06-.12-4.58-.17-7.64-.25s-4.43-.56-5.41-3.38q-5.13-15.78-10.35-31.51c-.73-1.14-5.41-.71-5.41.66Q366.69,83,366,98.72c0,4.46,3,8.2,7.14,10.31,3.69,1.86,7.88,5,8.87,8.75a13.4,13.4,0,0,1,.73,4.5v41.11a10.13,10.13,0,0,1-7.63,9.7,8.69,8.69,0,0,1-2.46.34c-13.27.6-26.49,1.9-39.65,3.65a8.59,8.59,0,0,1-10.1-8.87c4.38-49.09,8.85-98.17,14-147.18,0-4.64,4.43-8.34,9.85-8.34h15.51c12.65.32,27.15,7.57,29.8,21.18C395.71,21.06,408.81,12.2,422.12,12.69Z"/><path class="cls-1" d="M178.21,12.69H152.35c-18.07.23-31.34,18.8-30.68,35.92q.17,60.21.36,120.42c-.66,16.47,13.56,31.6,30.4,29.31,10.24-1.34,15.43-2.23,25.78-3.67,16.87-1.85,30.63-18.21,30.78-34.86V46.06C209,29.87,195.65,12.16,178.21,12.69Zm4.68,71.82c0,1.56,0,4.67,0,8V101c-.2,10.1-7.87,19.27-18,20.16-9.35.83-17.44-9.66-17.18-18.38,0-1.52,0-4.73,0-7.91V86.63c.1-9.88,6.93-19.35,17.19-20.21,9.25-.78,18.44,8.34,18,17.57Z"/><path class="cls-1" d="M312.86,17.22v33.3a4,4,0,0,1-3.94,3.78c-5.42.35-8.13.52-13.54.84a2.39,2.39,0,0,1-2.47-1.7c-1.23-12-9.11-9.34-14-9,.47,15.81.49,32.69,10.71,45.65,4.3,5.46,10.84,7,10.71,15.2V176a6.41,6.41,0,0,1-5.42,6.19c-18.45,2.07-36.92,3.86-55.4,5.61a4.74,4.74,0,0,1-5.17-5V112.15c-.1-8.27,6.43-11.57,10.58-17.62,9.82-14.3,10.15-32,10.59-48.79-4.92.28-12.8-1.53-14,11.33a2.4,2.4,0,0,1-2.22,2.17l-13.54,1.22a3.33,3.33,0,0,1-3.94-3.55V18.24a5.25,5.25,0,0,1,5.17-5.55h80.52C310.4,12.69,312.86,14.62,312.86,17.22Z"/><path class="cls-1" d="M81,288.16c14.2-2.39,27-12.92,25.89-28.68,0-5.25,0-7.88.07-13.14-.07-12.52-10.3-21.91-22.56-22.34a301.15,301.15,0,0,1-64.73-10.51c-5.64-1.71-10.32,1.13-10.32,6.89v154.7a10,10,0,0,0,9.81,10.26H73.56c19.64,0,39.53-13.8,39.65-34.87.05-10.18.07-15.38.12-25.91C113.77,304.45,99.23,292.27,81,288.16Zm-7.39,39.17c0,2.76-2.74,4.93-5.68,4.76-6.27-.36-9.41-.57-15.7-1.06a5.51,5.51,0,0,1-5.14-4.66c.09-10.64.13-16,.21-26.71a4.83,4.83,0,0,1,6-4.07c10.69,2.07,20.66,9.47,20.43,21.33C73.62,321.1,73.6,323.18,73.57,327.33Zm.52-63.62c.21,11.64-10.09,18.08-20.76,17.73-3,.12-5.66-2.62-5.89-5.52.07-8.11.1-12.17.16-20.29.27-2.35,2.51-3.92,5.23-3.54,6.32.86,9.46,1.2,15.72,1.73a6.11,6.11,0,0,1,5.57,5.87C74.1,261.3,74.1,262.11,74.09,263.71Z"/><path class="cls-1" d="M224.37,254.76v-9.88c.06-17-14.89-33.56-32.86-30.49-17.9,2.33-35.74,5-53.68,7.16a11.5,11.5,0,0,0-9.9,10.91q-.2,72-.4,144.07c0,4.24,3.66,7.78,8.56,8.4h24.28c7.35,0,10.79-5,10.79-11.69V321.13c0-1,.24-2-.49-2.6-.49-.67-1.72-.64-3.93-.57a8.31,8.31,0,0,1-8.56-8.61v-1.93c8.55-.36,17.88-2,20.83.4,3.43,2.54,2.45,8.8,2.45,15.33V372.7c0,7.09,6.37,12.64,14.22,12.64h15.2a13.27,13.27,0,0,0,13.49-13.19V308.52c0-1.25-.73-2.19-2-2.07l-2,.19c-22.32,2.19-22.07-6.21-22.07-6.21C221.22,298.41,224.62,273.27,224.37,254.76Zm-40.22,3.11c.17,12.08-8.94,21.13-20.35,23.42a4.72,4.72,0,0,1-5.86-4.3V255.8a5.81,5.81,0,0,1,5.13-5c6.26-.66,9.41-1.22,15.69-2.07a4.72,4.72,0,0,1,5.39,4.85Z"/><path class="cls-1" d="M302.11,226.33a38.54,38.54,0,0,0-9.08,2.09A14.83,14.83,0,0,0,284,241.77a11.81,11.81,0,0,0,4.41,9.33c3.2,2.43,7.36,2.19,11.53,1.68,5.2-.63,7.8-.95,13-1.64a4.46,4.46,0,0,1,5.15,4.39v8.16a6.22,6.22,0,0,1-5.15,6.05c-6,.76-9,1.12-14.95,1.82-16.32,1.81-17.9,28.62,0,26.21l4.17-.45c.17-10.35,7.53-19.64,17.9-21.3,4.7-.61,7.06-.84,11.77-1.09a4.78,4.78,0,0,1,4.9,5v78.75c.54,13.07-9.56,25.92-22.8,26.68H250.36a10.5,10.5,0,0,1-10.54-10.63V297.45c.5-13,8.88-26.57,21.82-30.57-12.88-1.83-21.83-13-21.82-25.85V220.34a12.2,12.2,0,0,1,10.79-12.09c25.09-2.41,50.09-5.05,75-8.7,6.13-.87,11,3.59,11,9.94V236a5.87,5.87,0,0,1-5.15,5.79c-4.41.37-6.62.63-11,1.26C310.28,244.44,302.06,236.41,302.11,226.33Z"/><path class="cls-1" d="M483.81,224.23c-4.69,50.24-9.37,100.47-13.73,150.74A10,10,0,0,1,460,385.34H445.56c-17.68-1.34-26.95-29-29.92-43-2.82,13.85-12.37,41.38-29.67,43H371.5c-5.64,0-10.05-5.32-10.05-11.72q-6.51-83.17-14-166.26c0-5.91,4.66-11,10-11.47a339.64,339.64,0,0,1,40-1.1c4.42.15,7.61,6.22,7.61,11.26v16.18a31.62,31.62,0,0,1-.49,4.74c-1.23,4.16-6.92,9-10.55,10.89-4,2-4.9,6.48-4.9,11.53q1.84,24,3.68,48c0,1.63,3.18,2,3.92.41q4.85-24.1,9.81-48.19a5,5,0,0,1,5.15-3.59c3,.24,4.56.39,7.6.7a6.22,6.22,0,0,1,5.39,4.57q5,24.74,10.06,49.48c.73,1.4,3.92,1.49,3.92-.09q1.83-23,3.68-46c0-4.94.72-9.33-3.43-12.33-3.38-2.44-9.08-8.53-10.3-12.92a15.73,15.73,0,0,1-.74-4.85V208.74c0-5.29,3.44-10.61,7.85-9.76A216.26,216.26,0,0,1,474,210C479.4,212.07,483.81,218.8,483.81,224.23Z"/></svg>