<svg id="Layer_1" data-name="Layer 1" xmlns="http://www.w3.org/2000/svg" viewBox="0 0 861.75 859.5"><defs><style>.cls-1{fill:#231f20;}</style></defs><path d="M625.14,406.79a7.26,7.26,0,0,0-3.68-4,7.15,7.15,0,0,0-9.51,3.42l-.41.88a58.71,58.71,0,0,1-6.6,11.05,66.8,66.8,0,0,1-8.1,8.68c-.47.42-1,.84-1.43,1.24A76.87,76.87,0,0,1,577,439.8a60.45,60.45,0,0,1-10.53,3.56,51.19,51.19,0,0,1-11.91,1.44h-.23a44.79,44.79,0,0,1-11.71-1.6,60.55,60.55,0,0,1-12.29-5.09l-.57-.29a6.9,6.9,0,0,0-9.37,9.18,43,43,0,0,0,11.91,14.46,49.72,49.72,0,0,0,17.56,8.84h0a2,2,0,0,1,1.14,3.1,156.09,156.09,0,0,1-19.15,22.77l-2.4,2.3c-.8.76-1.58,1.56-2.43,2.27-1.68,1.45-3.31,3-5,4.38s-3.41,2.85-5.18,4.2-3.55,2.69-5.36,4a163,163,0,0,1-22.94,13.8q-2,1-4,1.89a67.29,67.29,0,0,1-11.86.77,75.62,75.62,0,0,1-23.86-4.63,99.17,99.17,0,0,1-22-11.38c-.86-.59-1.73-1.15-2.58-1.76l-2.5-1.9c-.82-.64-1.69-1.23-2.48-1.92l-2.42-2c-1.64-1.32-3.11-2.73-4.62-4.12-.74-.71-1.45-1.47-2.18-2.2l-1.09-1.1-1.05-1.16a229.29,229.29,0,0,1-16-20.25c-5.24-7.17-10.63-14.58-16.9-21.65-1.62-1.74-3.19-3.5-4.92-5.18l-.95-.95a58,58,0,0,0-4.68-4.17,52,52,0,0,0-9.44-5.94,44.75,44.75,0,0,0-12.39-3.95,42.22,42.22,0,0,0-8.35-.48A39.28,39.28,0,0,0,318,439.33a42.27,42.27,0,0,0-12.89,10.5,49.7,49.7,0,0,0-4.64,6.62c-.63,1.17-1.31,2.31-1.86,3.5-.28.59-.58,1.17-.85,1.78l-.79,1.86a58.44,58.44,0,0,0-3.69,15.24,76.6,76.6,0,0,0-.06,15.06c.12,1.3.26,2.59.44,3.88-1.21-1.29-2.39-2.63-3.53-4a112.92,112.92,0,0,1-14.8-22.15c-.48-1-1-2-1.48-3l-1.31-3.05c-.16-.34-.31-.69-.46-1a37.06,37.06,0,0,0,8.55-6.44,32.43,32.43,0,0,0,6.55-9.4,23.6,23.6,0,0,0,2.24-11.19,4.72,4.72,0,0,0-8-3l-.47.47a53.51,53.51,0,0,1-5.85,5.11,55.41,55.41,0,0,1-6,3.85c-.92.5-1.86,1-2.8,1.43a52,52,0,0,1-9.9,3.64,37.91,37.91,0,0,1-6.89,1.08,28.72,28.72,0,0,1-5.94-.21,25.52,25.52,0,0,1-6.45-1.77,38.94,38.94,0,0,1-6.91-3.91l-.33-.23a4,4,0,0,0-6.17,4,23.77,23.77,0,0,0,4.67,10.14,28.07,28.07,0,0,0,9.13,7.58,33.18,33.18,0,0,0,11.46,3.49,36.45,36.45,0,0,0,4.54.24q1.59,5.28,3.69,10.37a125.85,125.85,0,0,0,15.73,27.61,145.93,145.93,0,0,0,21.56,23.13,171.67,171.67,0,0,0,15.86,12.11h0c1,1.68,2.13,3.32,3.26,4.94a100.59,100.59,0,0,0,20,21.47,73,73,0,0,0,12.93,8.15,58.87,58.87,0,0,0,15,5.08,54.81,54.81,0,0,0,8.12.88,50.17,50.17,0,0,0,8.21-.44,54,54,0,0,0,15.58-4.61l.16-.07a10.45,10.45,0,0,0,.93-.51,100.77,100.77,0,0,0,16.36,4.87,118.65,118.65,0,0,0,40.73,1l.1,0a7.9,7.9,0,0,0,.8-.14,11.13,11.13,0,0,0,2.71-1,101.29,101.29,0,0,0,19.53-6,105.24,105.24,0,0,0,30.8-20.13c3-2.81,6-5.57,8.78-8.44a179.67,179.67,0,0,0,39-30.1,162.41,162.41,0,0,0,20-24.92,145.51,145.51,0,0,0,11.64-21.58,6,6,0,0,1,3.3-3.18h0a63.57,63.57,0,0,0,30.08-23.46,50.44,50.44,0,0,0,7.69-18.13A36.42,36.42,0,0,0,625.14,406.79ZM465.28,555.73a79.66,79.66,0,0,1-17.22,6.41l-.21,0c-3.4.76-6.84,1.34-10.29,1.76a73.78,73.78,0,0,1-9.05.29,25,25,0,0,0-4.67.46,91.28,91.28,0,0,1-9.78-.68,79.06,79.06,0,0,1-31.67-11,80.62,80.62,0,0,1-24.5-23.83,113.56,113.56,0,0,1-14.62-32.35l0-.07a5,5,0,0,0-9.7,2.4,124.73,124.73,0,0,0,13.36,36.8,95.46,95.46,0,0,0,24.66,28.68c-2.74-.4-5.21-.82-6.61-1.07-6.89-1.19-13.75-4.57-19.92-9.26a74.33,74.33,0,0,1-8.79-7.92,94.08,94.08,0,0,1-7.71-9.33,104,104,0,0,1-10.67-18.77c-.38-.89-.76-1.77-1.12-2.67a87.32,87.32,0,0,1-6-23.37c-.82-7.84-.28-15.68,2.26-22.28l.49-1.23c.18-.41.39-.82.58-1.23.37-.85.82-1.62,1.24-2.42a31.31,31.31,0,0,1,2.95-4.35,24.81,24.81,0,0,1,7.56-6.4A23.79,23.79,0,0,1,345,453.12a33.42,33.42,0,0,1,9.34,5.12,43.55,43.55,0,0,1,4.29,3.8c1.5,1.41,2.9,2.95,4.34,4.45,5.64,6.18,10.86,13.09,16.21,20.23a245.08,245.08,0,0,0,17.44,21.36l1.21,1.29,1.28,1.26c.85.83,1.68,1.69,2.56,2.5,1.78,1.6,3.56,3.26,5.4,4.7l2.73,2.22c.91.75,1.9,1.42,2.84,2.13l2.85,2.09c1,.68,2,1.32,2.95,2A113.66,113.66,0,0,0,444,539c2,.69,4,1.31,6.1,1.88A86.54,86.54,0,0,0,472.41,544a80.81,80.81,0,0,0,10.55-.57A82,82,0,0,1,465.28,555.73Z"/><path d="M472.94,376.07c5.69-3.09,11.42-6.1,17.34-8.72a140.49,140.49,0,0,1,25.26-8.72,118.11,118.11,0,0,1,25.92-3.09c1.09,0,2.2-.09,3.29,0l3.29.16,1.66.05c.56,0,1.1.11,1.65.17,1.1.12,2.21.21,3.33.32.56.07,1.14.07,1.68.17l1.66.28c1.12.16,2.25.34,3.39.48a15.47,15.47,0,0,1,1.7.31l1.7.34c1.15.2,2.3.44,3.5.6l.64.09a4.56,4.56,0,0,0,3.38-8.14,66,66,0,0,0-6.53-4.61c-1.16-.65-2.34-1.28-3.53-1.91a32,32,0,0,0-3.66-1.72,61.76,61.76,0,0,0-7.64-2.69l-3.94-1a14.94,14.94,0,0,0-2-.41l-2-.32a79.13,79.13,0,0,0-32.22,1.62,93.6,93.6,0,0,0-29,13c-1.82,1.23-3.59,2.53-5.33,3.87a65.71,65.71,0,0,1,14-16.21A74.39,74.39,0,0,1,509,329.13c3.35-1.44,6.82-2.72,10.43-3.9s7.36-2.24,11.33-3.45l.2-.06a4.71,4.71,0,0,0,.12-8.94,43.22,43.22,0,0,0-13.7-2.14,53.91,53.91,0,0,0-14,1.84,60.52,60.52,0,0,0-24.81,13.86,64.19,64.19,0,0,0-16.1,23.2,66.51,66.51,0,0,0-4.58,20c-.17,2.57-.84,6.12.66,8.37C462.35,383.5,468.92,378.25,472.94,376.07Z"/><path d="M269.44,391.9a4.55,4.55,0,0,0,5.72-2.94l.06-.2a45.63,45.63,0,0,1,6.11-12.66,36.59,36.59,0,0,1,9.41-9.17,46.85,46.85,0,0,1,25.18-7.55,48.05,48.05,0,0,1,25.36,6.35,35.61,35.61,0,0,1,9.64,8.53,43.62,43.62,0,0,1,6.49,12.27l.07.22a4.58,4.58,0,0,0,8.87-1.26,38.11,38.11,0,0,0-3.45-18.17A41.48,41.48,0,0,0,351,352.21a49.87,49.87,0,0,0-17-8.74c-1.53-.4-3-.86-4.59-1.17s-3.09-.59-4.65-.76-3.12-.37-4.68-.4-3.14-.09-4.7,0a58.31,58.31,0,0,0-18.38,3.6,51.13,51.13,0,0,0-16.28,9.69A43.8,43.8,0,0,0,269.6,369.8a41.65,41.65,0,0,0-3.32,18A4.55,4.55,0,0,0,269.44,391.9Z"/><path class="cls-1" d="M36.29,441a34.84,34.84,0,0,0,1.49,8.88,12.41,12.41,0,0,0,12.36,8.25,12.83,12.83,0,0,0,9.16-4.89c2.47-3.54,2.48-7.42,2.24-11.52l-.71-12.33a5.42,5.42,0,0,1,5-5.86l7.49-.44a4.85,4.85,0,0,1,5.11,4.55l1.91,32.86c6.27-.6,10.58-5.7,13.17-11.19,3-6.47,5.49-13.89,8.5-20.61,1.92-4.47,3.8-9.67,7-13.49,5.92-6.65,15.11-6.94,23.31-7.66l40.31-3.07c4.59-.27,8.46,3.87,8.79,9.43l4.31,70.05a9.83,9.83,0,0,1-9.33,10.48L92,499.31c-18.6,1.08-20.19-18-20.19-18,.57,9.9-12.42,19.87-20.88,20.36l-20,1.16a13.78,13.78,0,0,1-14.57-13l-4.48-77.07A4.76,4.76,0,0,1,16.2,408l31.4-1.83a4.92,4.92,0,0,1,5.13,4.8l.63,10.87A18,18,0,0,1,36.29,441Z"/><path class="cls-1" d="M32.65,303.32l-6.89,24.46A30.26,30.26,0,0,0,46.67,365.1l104.82,29.53a30.26,30.26,0,0,0,37.32-20.91l6.89-24.46a30.26,30.26,0,0,0-20.91-37.32L70,282.41A30.26,30.26,0,0,0,32.65,303.32Zm62.27,12.77.47.13,7.22,2,7.22,2,.47.13a17.2,17.2,0,0,1,11.75,21.66c-2.56,9.09-12.52,14.08-21.84,11.45l-7-2-7.22-2c-9.09-2.56-15-12-12.65-21.16A17.56,17.56,0,0,1,94.92,316.09Z"/><path class="cls-1" d="M113.27,162l30,20.06a3.62,3.62,0,0,1,.86,5.24l-7.61,10.93a2.6,2.6,0,0,1-3,.93c-10.93-5.86-13.43,1.78-16.12,5.81,48.26,32.31,49.72,7.95,64,17.51l57.11,38.23a5.37,5.37,0,0,1,1.46,7.39L209.7,313.36a5.16,5.16,0,0,1-7.25,1.26l-57.11-38.23c-14.28-9.56,7.55-20-40.71-52.3-2.69,4-8.81,9.25.77,17.12a2.12,2.12,0,0,1,.4,2.88l-7.2,11.2a3.51,3.51,0,0,1-5.18,1.2l-30-20.06a5,5,0,0,1-1.39-7.05l44-65.76A5.17,5.17,0,0,1,113.27,162Z"/><path class="cls-1" d="M233.81,58.92l12.06-7.64a9.77,9.77,0,0,1,13.57,2.86L351.09,173.4A9.76,9.76,0,0,1,348.23,187l-32.91,20.87a7.87,7.87,0,0,1-2.17,1.09,9.89,9.89,0,0,1-11.52-4.16L279.21,169.4a14.14,14.14,0,0,1-2-4.14c-1.05-3.92,1.18-10.79,3.34-14.16a12.4,12.4,0,0,0-.1-12.83l-19.1-25.14c-.77-1.23-3.9.18-3.86,1.59l8.63,33.5c.76,2.1-.44,4.28-2.28,5.45l-6.33,4c-2.45,1.55-3.94,1.92-6.31,0l-26.21-22.36c-1.26-.63-4.88,2.24-4.11,3.47l16.4,28.57c2.46,3.88,7,5.6,11.63,5.24,4.1-.31,9.26.14,12.15,2.89a14.18,14.18,0,0,1,3.08,3.5l22.41,35.36a9.88,9.88,0,0,1-1.15,12.19,8.16,8.16,0,0,1-1.92,1.5l-32.9,20.86a9.81,9.81,0,0,1-13.69-3.07l-68.56-133.9a9.72,9.72,0,0,1,3-13.36l12.88-8.16A29.79,29.79,0,0,1,221.71,95,30.07,30.07,0,0,1,233.81,58.92Z"/><path class="cls-1" d="M406.84,34.72l-3.9,133.77a9.61,9.61,0,0,0,9.39,10.2l21.77.63c5.56.16,9.55-3.84,9.71-9.4l1.67-57.33c.12-3.87-2.22-6.84-5.3-9.11q-6.39-4.91-6.13-14l.28-9.43c.12-4.11,2.86-6.94,7-6.82l20.56.6a6.67,6.67,0,0,1,6.57,7.21l-.27,9.44a17.29,17.29,0,0,1-7.42,13.58c-3.21,2.08-5.47,4.92-5.57,8.55l-1.68,57.57a9.35,9.35,0,0,0,9.15,10l22,.65a9.37,9.37,0,0,0,9.72-9.41l3.9-133.76c.43-15-10.13-26.2-25.13-26.64L433.47,9.83A25.42,25.42,0,0,0,406.84,34.72Zm45.8-1.57c7.26.21,14.68,3.09,14.4,12.53a53.69,53.69,0,0,1-.69,7.24c-.85,4.09-5.5,5.89-9.61,5.77l-9.19-.27c-3.63-.1-7.46-1.67-8.57-5.09a25,25,0,0,1-1-8.5C438.29,35.4,445.87,33,452.64,33.15Z"/><path class="cls-1" d="M679,95.66l-80.58,127a9.61,9.61,0,0,1-13.25,4.07l-12.7-6.53c-12.7-6.53-12.83-32.73-9.31-46.43-8.9,10.94-30.5,25.95-43,19.53l-12.7-6.53a9.76,9.76,0,0,1-4.39-13.15L559.31,34.1a10,10,0,0,1,13.36-4.28l35.08,18c3.87,2,4.23,8.17,2.13,12.26l-6.75,13.13a27.23,27.23,0,0,1-2.43,3.65c-2.84,2.89-9.9,4.43-14,4.49-4.54-.16-7.07,3.17-9.18,7.26l-16.58,40.18c-.67,1.29,2,2.94,3.33,2L593,96.08a5.47,5.47,0,0,1,6.18-.91l6.68,3.43a5.34,5.34,0,0,1,3.07,5.67L597.5,148.19c.09,1.41,3,2.63,3.67,1.34l22.93-36.64c2.1-4.09,4.63-7.42,2-11.24-2.24-3.06-5-9.91-4.28-13.9a12.92,12.92,0,0,1,1.35-4.21l6.64-12.91c2.22-4.3,7.66-7.49,11.54-5.5l33.57,17.28A9.92,9.92,0,0,1,679,95.66Z"/><path class="cls-1" d="M704.43,142.08,603.68,230.16a9.62,9.62,0,0,0-1.1,13.82l14.34,16.4c3.66,4.19,9.3,4.4,13.5.73l43.17-37.75c2.92-2.55,3.51-6.28,3.08-10.08q-.75-8,6.09-14l7.1-6.21c3.1-2.71,7-2.62,9.74.48L713.14,209a6.67,6.67,0,0,1-.82,9.72L705.21,225a17.28,17.28,0,0,1-15,3.8c-3.71-.94-7.33-.67-10.06,1.72L636.79,268.4a9.36,9.36,0,0,0-1.08,13.48l14.49,16.57a9.36,9.36,0,0,0,13.5.74l100.75-88.08c11.3-9.88,12.33-25.24,2.46-36.54l-26.13-29.88A25.41,25.41,0,0,0,704.43,142.08Zm32.29,32.52c4.78,5.47,7.71,12.87.61,19.08a55.21,55.21,0,0,1-5.79,4.42c-3.57,2.16-8.06,0-10.77-3.13l-6-6.92c-2.39-2.73-3.84-6.6-2.09-9.75a25.25,25.25,0,0,1,5.58-6.48C725.32,165.61,732.26,169.5,736.72,174.6Z"/><path class="cls-1" d="M808.82,260.58,666.27,305a9.87,9.87,0,0,0-6.72,11c1.65,5.31,4.61,14.79,5.9,18.94l1.23,3.93c2.16,6.93,8.71,8.44,15.87,6.21L735,328.71c.92-.29,1.92-.35,2.4-1.26.55-.67.42-1.9-.23-4a8.68,8.68,0,0,1,6-10.75l1.85-.58c2.52,8.09,5.71,16.73,4,20.29-1.77,4.1-7.83,5-14.07,6.92l-49.21,15.34a14,14,0,0,0-9.22,17.58l4.46,14.32a13.28,13.28,0,0,0,16.67,8.75l59.61-18.58a2,2,0,0,0,1.5-2.5l-.57-1.85c-6.56-21,1.37-23.24,1.37-23.24,5.11,16.4,18.26,21.18,46.91,12.25l9-2.81a32.64,32.64,0,0,0,21.54-40.68L821.25,267.1A10.13,10.13,0,0,0,808.82,260.58Zm-9.89,39.84,4.61,14.78a5.36,5.36,0,0,1-3.5,6.67l-3.92,1.22c-11.79,3.68-20.32-2.54-25.16-13.2a5.06,5.06,0,0,1,2.66-6.91l19.64-6.12A5,5,0,0,1,798.93,300.42Z"/><path class="cls-1" d="M685.47,409l-5,53.5a39,39,0,0,0,35.19,42.4l93,8.64c21.21,2,38.32-12.23,40.3-33.44L854.12,425a9.8,9.8,0,0,0-9-10.79L696.25,400.32A9.78,9.78,0,0,0,685.47,409Zm74.12,34.11,59.52,5.54c4.82.44,4.59,2.85,4.28,6.23-1.25,13.49-11,19.39-36.58,17-20.72-1.92-33.35-9.9-32-24.12C755,445.16,755.25,442.75,759.59,443.15Z"/><path class="cls-1" d="M725.58,722.68,612,624a9.61,9.61,0,0,1-2-13.71l8.35-11.58c8.36-11.57,34.28-7.79,47.31-2.27-9.49-10.43-21.11-34-12.89-45.41l8.35-11.58a9.76,9.76,0,0,1,13.66-2.38l129.55,76.47a10,10,0,0,1,2.24,13.85l-23.08,32c-2.55,3.53-8.71,3-12.44.28l-12-8.64a26.55,26.55,0,0,1-3.25-2.94c-2.43-3.25-2.91-10.45-2.35-14.53.84-4.47-2.07-7.46-5.8-10.16L710.41,601c-1.17-.85-3.21,1.56-2.46,3l30,33.62a5.44,5.44,0,0,1,0,6.25L733.58,650a5.31,5.31,0,0,1-6.06,2.19l-41.71-17.87c-1.41-.12-3.06,2.58-1.88,3.43l32.81,28.15c3.73,2.69,6.64,5.69,10.81,3.62,3.36-1.75,10.54-3.43,14.39-2.15a12.83,12.83,0,0,1,4,2l11.77,8.5c3.93,2.83,6.26,8.69,3.71,12.23l-22.09,30.61A9.91,9.91,0,0,1,725.58,722.68Z"/><path class="cls-1" d="M661.18,726.66c3.21-2.17,5.24,0,6.19,1.36l12,17.62c6,8.8,5.4,19.15-3.41,25.13l-20,13.59a9.81,9.81,0,0,1-13.78-2.63L558.11,658a9.81,9.81,0,0,1,2.63-13.78L589,625.05a9.82,9.82,0,0,1,13.79,2.63L652.51,701c5.84,8.61,2.87,21.45-4.46,28.76C650,732.53,657.58,729.11,661.18,726.66Z"/><path class="cls-1" d="M481.58,836.38l-35-140.68a12.09,12.09,0,0,1,9-14.93l24.44-6c7.05-1.74,13.31,2.45,15.05,9.5,12.58,51,14.5,73.94,31.65,69.7l.47-.11a3.73,3.73,0,0,0,2.66-4.39l-1.57-6.35c-.64-2.58-2.63-2.59-5.62-3.6-4.1-1.48-4.67-6.82-6.36-13.63l-10.72-43.47a13.53,13.53,0,0,1,9.91-16.4l22.56-5.57a12.1,12.1,0,0,1,14.94,9L587.48,810a12.09,12.09,0,0,1-9,14.94l-7.51,1.85a14.92,14.92,0,0,1-13.2-3l-53.16-41.72c-1.58-1.36-3.47.1-3,2,3.71,15,5.15,22.91,12.72,24.28a6.64,6.64,0,0,1,5.26,5.18l3.65,14.81a9.91,9.91,0,0,1-7,11.95l-19.73,4.87C489.64,846.86,483.26,843.2,481.58,836.38Z"/><path class="cls-1" d="M306.9,819.79l26.55-142.51a12.09,12.09,0,0,1,14.41-9.85l24.73,4.65c7.14,1.34,11.11,7.75,9.76,14.89-9.7,51.61-17.47,73.29-.11,76.56l.48.08a3.72,3.72,0,0,0,4.24-2.89l1.2-6.42c.5-2.62-1.32-3.45-3.62-5.61-3.12-3.05-1.42-8.15-.13-15l8.27-44a13.53,13.53,0,0,1,15.83-10.82l22.83,4.29a12.09,12.09,0,0,1,9.85,14.41l-27,142.18a12.08,12.08,0,0,1-14.41,9.85l-7.61-1.43A14.9,14.9,0,0,1,381.42,840l-31.07-60c-.88-1.89-3.2-1.34-3.56.56-2.86,15.22-4.81,23,1.51,27.37a6.64,6.64,0,0,1,2.64,6.9l-2.82,15a9.91,9.91,0,0,1-11.34,8l-20-3.75C309.9,832.66,305.61,826.68,306.9,819.79Z"/><path class="cls-1" d="M203,752.51a35.11,35.11,0,0,0,8,4.14,12.41,12.41,0,0,0,14-4.95,12.88,12.88,0,0,0,1.58-10.27c-1.36-4.09-4.45-6.43-7.88-8.7L208,725.65a5.06,5.06,0,0,1-1.56-6.84l4.27-6.46a5.11,5.11,0,0,1,7-1.43l12.31,8.15c14.53,9.62,28.16-11,13.63-20.58l-3.43-2.28a17.81,17.81,0,0,1-24.62,5.18L206,695a4.86,4.86,0,0,1-1.37-6.71L243.21,630a22.41,22.41,0,0,1,31.06-6.14l52.26,34.6a10.33,10.33,0,0,1,2.93,14.42L288.32,735A28,28,0,0,1,255.4,745.7,27.67,27.67,0,0,1,258.53,780l-11,16.54a10.57,10.57,0,0,1-14.75,3l-61.75-40.87a10.85,10.85,0,0,1-3.07-15.1l13.89-21a5.11,5.11,0,0,1,7.05-1.43l9.08,6A18.18,18.18,0,0,1,203,752.51Z"/><path class="cls-1" d="M189,539.26l-51.4,35.45a2,2,0,0,0-.69,2.83l1.1,1.59c12.5,18.13,5.59,22.6,5.59,22.6-9.76-14.14-23.73-14.79-48.43,2.25l-7.77,5.36a32.63,32.63,0,0,0-8.48,45.24l30.22,43.83a10.14,10.14,0,0,0,13.81,2.53l122.91-84.78A9.88,9.88,0,0,0,249,603.69c-3.16-4.58-8.79-12.75-11.27-16.33L235.41,584c-4.13-6-10.83-5.47-17-1.21L173.18,614c-.79.55-1.73.9-1.91,1.91-.33.81.16,1.95,1.4,3.74a8.69,8.69,0,0,1-2.56,12.06l-1.6,1.1c-4.81-7-10.43-14.27-9.88-18.17.46-4.44,6-7.08,11.37-10.79l42.43-29.27A14,14,0,0,0,216,555l-8.52-12.35A13.27,13.27,0,0,0,189,539.26ZM144.43,642.6A5.05,5.05,0,0,1,144,650L127,661.67a5,5,0,0,1-6.47-1.71l-8.79-12.75a5.36,5.36,0,0,1,1.36-7.4l3.39-2.34C126.66,630.46,136.64,633.86,144.43,642.6Z"/></svg>